/* XPM */
static char *Texture_128x128_10_20[] = {
/* columns rows colors chars-per-pixel */
"128 128 15 1 ",
"  c #66AF94",
". c #66B196",
"X c #68B296",
"o c #67B599",
"O c #6AB699",
"+ c #67B99B",
"@ c #6CBB9D",
"# c #6EBFA0",
"$ c #70BFA0",
"% c #6EC1A1",
"& c #71C4A4",
"* c #72C9A7",
"= c #73CAA8",
"- c #76D1AD",
"; c #78D1AD",
/* pixels */
"XXXXXXXXXXXXXXXXXXXXXXX$@@@@@@@@OOOOOOOO$$$$$&#&&&&&&&&&&&&&&&&&&&*#XX#XX#. ....XXXOXXXXXXXXXXXXO$$$$&#%%%%%%%%%%%%&$$$$$$$$XXXX",
"X. X XXXXOOXXOXXXOXXOXX$@$@@@@O@$O$O$OOO$$$$$&&#%$%##%%%&$$&&$&$&$&OXX    ......XXOXXOXOXOXOXXOXOXXXOX.oo...oooXXXXXXXXXXXX XXX ",
"XX.XXXXXXXXXXXXXXXXOOXXO@@@@@@@@O$O$XOOO$&$$&$%#&&#%%%&$$&&$&$&&&$$O X.X.......#XXOXXXXOXOXOOOOXOXXXooooo.X..o..XXXXX  XXXXXXXXX",
" ..X XXXXXXXXOXOOOXXXXX#$@@@@@@@O$OOOOOO$$$&%#&&#####$%##&#&$&$&&&$#XXXX........OXXXXXXOOOXXXOXXXXXX.oooO...o..XXXXXXXXXXXXXX XX",
" X XXXXXXXXXXOX.XXXXOXX$$@$O@@$OO$O@O@OO$$&#%&%%%%+%%%%%%%&&$&$&$&$#  XX......ooXXOOXXXOOOXXOOXXo..o.oooO..oXXXXXXXXXXXX...XXXXX",
"XXX XXX XXXXXXooOOOXOX $@$O$@@@@@@O@@OOO$$%%##%%%%%%%%%%%%#%&%&$$$$#XX X......#.OXXXXXXXOXOXOXOXoo.oooooo...XXXOXXXXXXXXXX. X XX",
"XXXXXXXXXXXOO.O.XOOXXXX$$O$@$O$O@@@@OOOO$#%$&&#%%%%#%%%%%%##@&&&&#$OXXXXoX.... .OXXOOXOXXXOOXXXOooo.oo.oO.XXXXXXXXXX XX .. X X  ",
"X X XXXXXXOXOOooOXXOOOO$$$O$O$@@@O@@O@OO$$&##%#%%%%%%%%%%#&&#&%$$&&#X XXXX... #.OXOOOOOXOOXO$XOO.ooo.oooXOXXXXXXXXXXXX X..XXXXXX",
"X XXXXXXXXXXOo..OooXXo.#O$$$OX##O$O@@OOO%%%%%##%%%%%%%%%%%%%&##&$$$OXXXXXXXXXXOOXOXOOXX@OOOOOOOOoXO.O.OO..XXXXXXX.XXXX X......X.",
"XX X XXX XXOXOOoXXOOO..#O$$$$##O@@@@@OOX#%%%%%%%%%+%+%%%%%%%%%$%$$$$XXXXXXXXXX#XOOOXXOOXOOOOOOOOoOXO.OO.O.XXXXXXX.XXXX.X....X.X.",
".X XXXXXXXOOXo.OoOOX###%$$$&####$$$$$$@$%%&&%%%%%%%%%#%%%%%%%$&%$$$OXXOXOXX XOXXOXoOOOOOOOOXOOOOOXOOXOOOXX.XXXXX.X.XXXXX. ......",
". XXXXX XXOXOoOXOXX.####$$$$####$@@@O@OO%%%%%%%#%%+%#%%%%%%%$&@%#*$$XXXXXXX#XXOOOOOOOOOOOOOOOOOOOOXoOOXOo.XOXX.XX..X XXX...X.. .",
"X..X..XXXXOOOXOoXXoO###########XO$O@@OO@%%%%%#%#+%+%%%%%%%%%%%%#####XXXXXOXOXXO$OOOOOOOOOOOOOOOOOOOO.Ooo+.OXXXXXX.X. XX XX X....",
"X..X.XXXXXXOOo.OoOOX#######o####$@$@@#OO%%%%%%##+%%%%%%%%%%%%##%####XXXOOXOXOOOXOOOooOOOO@@OOO@OOOOOOooo.XXXXXXXX..XXXXX XXX....",
". .... XXXXOOoXXOOOO#####+#####O@$@@@OOO#%%%##%#%%%%+%%%###@%#######XXXOXXXOXOOO@Ooo@OOOO@O@@OO+@oOOOO.o..XXXXXXX.oXXXXXXXXXX.XX",
".XX.X.XXX OOOoOOOooX############@$$$@@@@%%*%%%%%%++%%%+%###%$%%#####XOXXXOXXOXX$OO@@oOO@OOOOOOO+oooOOOoo+.XXXXXXXXXX XX XX XX XX",
".XX X XXXXOOoXOOOOOO#%%%%#%%%#####@#@@@@&*&&%%*%%%#%%#%#%%%%%%%%##%++oo.XXXXOOOOOOOo@oooOoOOOOOOoo#oooooo+o+OOOOXOOXOXOOOXXXOXXX",
"...X XXXXOOOOOOOOOoo#%%%%%%%#######&&&&#*******&%%*%*&*&*&*&**%%##%+ooo.OXOXOOO@O@Ooo@+@+oOOOOOO#oo+####O+OOOOOOOO#OOOOO$O@O@XXX",
"XXXXXXXXXXOOOOoOoooo#%%%#%#@%%##%#@&&$%%*==******%*&&&&*&*****%%#%%+OX.oOXXXXOOOOOOOo++oo@OOOO++oo###+#+#++OO@O@OOOOOOO#O@OOOXXX",
"XXX XXXXXXOOOOooOoO@#%%#%#%%#%%+##$&%##%****%****%%&&&&&&&&***%%##%+..OXXXOOOO@O@OO@@+++O@o+O+@Oo#+###+#++++#O@O#O#O$OOOOO@OOXXX",
"XX XXXXXXXOOOOOOOO@o$&&#%%%%#%%%@&@&&&#&***&**&%%*%%&&&&&&&**&%%###oXOXXOXXXO@O#O@@@o+++OO@OOOO@oo##o###O+++O@O@OOOOOO$OOOOOOXXX",
"X  XXX XXXOOO#OOo@oo#$#$#%@%#+%#%@@&$@&@&***&&*&%%%*&#&&&&%**&%%###ooXOOXXOXOOOO@o+o@@o+@OOOOO@O#o#####+#++++@@OO#$O$OOOO$OOOOXX",
"X .XXXXXXXOOoOooOOo@##$&##%@%%+%$#@&&@&$&**&&&*&%*%%&&&&&&%*&*##&###oXXOXOXOOO$O@O#@@+@+OOO@@@O@oo####o#o#+OOOO@OOOOOOOO$XOOOXXX",
".X.XXXXXXXXXXOX.XOOX@@#@@@%@+#+#@@@&@&@&***&*&&&%%%%&#&%&&%*&&######OoO.OXOXO@OOo#o+#@#oOO@O@O@O##o######oo#+#OOOO$XOO$OOOOOOXXX",
"X .XXXXXXXXXO..XXXXX@@@$$@@@#@@#@#@%#$$#$****$*#%%##%%%*$$&&&=##%### oOXOXOOOO$##@@@@@oo@O@OO@@@o######oO+#++OOOo#OoOOO#$XOOOXXX",
".X XXXXXXXXXO.X OXOX@$@@$@#@@#@@@#@#&##$***#$*$$%####%*#$$$=&&#####+OOoOXOOXOO#O@@#@@##o@OO@@O@@#o######++o+OOO+OOO##OOOOOOOOXXX",
"...XXXXXXXX.  XX..XXO$$@@$@@@@$@@@@#@#$###########o##O#O$OO$$#X#oo++ OOOOXXOO##O@@@##O@O@O@@O@@@#o###+#+#+++#O@@o#ooOO#O$OXOOOXX",
"XXXOXXXXXXXooOO.ooOO@@@$@@@$#$@@@@###$#$###O##O##.ooX#OOOOO@##XOoo.oOOXXOOXOOo##@#@@##O$@@@O@O@#o#######O++#+O+Ooo#OOOOOOOOOOXXX",
"XXXOXXOXXO.Oo..oooOO@@@@$@@@@@@@@#@#######%#O$OOX##OXOOOO@O@@@OOooOOoOOO.OOoo####@$$O#OOO@OOO@$O#######+++OO#O#O#O#oOOOOOOOOOOXX",
"XXXXXOOXXX..XX.XXooX@@$@@@@@@$@@@@@######%##$O#OOXXX#XX#OOO$@$OOOooOOOOXOooOooOOooOOOOOXXOXXOOoO ooo+##++++OOOOOoOOOOO$OOOOOOXXX",
"XOXXXOXXXOX......OoX@@$@@@@@$@@@@@#########oO##XO#X#OOOOO@OOO@OOoOOOOOOOOoOooOOOOOOOOOOXXXXXXXXX.oo##o+##o#OOOOOOOOO$OOO@OOXOOXO",
"OXXOXXXXX.X.O...oooo@$@@$@$@@@@@@@@###########O#OXX#OX#OOOO$O$OOOOOoOOOOOooOOOOOOOOOOOXXXXXXXXXXoo.#oo#oO+oOO##OOOO#OOOOOOXOXOXX",
"@++@O@OOO@OO..O.oooo@@$@@@@@@@@$@$@$$$###%$@$@$OOOOXOOOOOX$OO$XOOOOOOOOOOOOOOOOOOOOOOOXXXX XX....ooo#.#.+@OOO@OO$@$@$###@@@@@@OO",
"O@O@@O@@@O@X..oooooO@#@@$@@@@$@OO$O$@$@###$OOO@OOOO$OOOO$XX$$XOOOOOOOOOOOOOOOOOOOOOOOOXXXXXXX.Oooo.#o##oO++@@O@O@$$$@#@##@@@@@+@",
"O@+@@@O@@OOX...o.o.O+@O@O@OOOOOOOOO$@@@@OOO@O$O@OOOOOOOXXOX$X$$XOOXXO$OOOOOOOOOOOOOO@OXX XXX...o.oooo...@O++OOOO@$@$@$###@+@@@+@",
"@@O@O@@@O@@X..oooooo+@@O@@OO@OOOOOOOO@OO+@@O@O$OXX$XOXO$$OXO$$XXOO$OOXOO@OOOOOOOOOOOOOX XXXXX .o# o###.#+O@+@O@O$$@$##@@@@@@@@++",
"@+@@O@@OO@+o.oooo.o.@OOOOOOOO@@OO$+@@@@@@OO@O@O@O$XXOOOXXXX$$XX$OXOOOOOOOOOOOOOOOOOO#@@@O@O@+O@@++####o#@##@###@@$@$$@$$#@@@+@+@",
"@@+@@@@@@+@O..o.O.ooOOOOOOOOOOOOOOO@O@O@@@OO$O$OOOX$OOOOXOX$O$$XO$$OOOOOOOO@@OO@@OO@#@@@OO@O@+@@%+########@%@@#O$$$@$$@##@@+@@@+",
"++@@+@O@@O@O..o.oo.OOXXOOXOXOOOOOO+@@O@OOOO@@@OO$XOOOOOO$X$X$$XXOOXO@O@OO@@OOOOO@OOO#$@@@@@@+###%+&&####%%%%%%#@@$$$$##$@@+%#+++",
"@@@+@@@@@@@OX.oooXOOXOOXXXXO@OO@O+@OO@O@@OOOO@O@OOOOOOOOXXX$$XX$O$OOO@XOOOOOO@O@OOO@#&$$@$@@#+%%%%%%&###%*%%%*&#$@$$###@%@+#+%+@",
"$O@@O$O@@@@OXXXX.Oo.OXOXO..OO@O+O+O#@OOOOOOO@+@OOOOOXOOOOXXOO$OOOOXOOOOOOOOOOOOOOOO@$$#@+%@#@#%%%%%*&&%&%&&%&&%#@###%#%+#@++%++%",
"$$OO@O$@@@@OXXXOO..OXOXX.O.O@OO+OOOOO@O#@@@@@##@$O$OO$O$$O$$$$$$$$$OO$X$OOO@O@OO@OOO$&##%@#@#+%%%%%%&&&&&%%%&%%#####@%%%%+%++%++",
"O$@$$O@@@@@OXXOXXO.OOXOOXOOO+@@@#+O@@@O$#@@@@@@#O$O$$$OOO$$$$$$OO$XXXOXXXOOXOXOXOXOX#%@@#@#@###%%%%%%%%%&%&%$%%#@%##%%@%%%+%#+%+",
"$O@@O$@@@@@XXXOX.OXooXXXXoOO+@O+OO@O@OO@@@@@@@@@$O$$OO$OOOOOOOOOOOXXXXXXXX.XXXXXXXX.@@@#%+@@@#%%%%%%&%%%%%&%&#&@@%%%@%%%%+#+@@@#",
"O@$O@$@@@@@OXXXXX.OOO.OXXOoO@+@@@OOOOOO@@@O@@@@@OO$OO$X$OOOOO$OOOOXXXXXXX. X ..X.XXX@@#@@+##+###%%##+%%#%%#$#%$O@@%@##@%%++@@@@@",
"$@O$@@@@@@@OXXXXO.o..O.XXoOo@+O@O@@OOO@@OO@O@@@@$OOOOOOOOOO$OOOOOXXXXXXXX.X.XX..XXX.@@@##@#@#+##+%##+%+###O###$O+@@@@#@@@@#@+@@@",
"@@@@@@@@@@@OXXOXXooOoO.X.o.O@@@@O$OOOOO##O@+@@@@$OO$OOOOOOOO@OO@OOXXXXXX..XXXXX.....@%@##@@##+#+%+#+%#+###o@##@O@@@@@@@@@@@++%+%",
"@$@@@@@@@@@OXXOOoo.o..OXO.oO@@OOOO@OO+OO@@+@@@+@O$OOO$$OO$OOOOOO$OXXXXXXX..X X..X..o++#@#+#+###+####+%##+###@@@O@@@@@@@@@@@@#++#",
"@@@@$@$@@@@O..OO.o.o.OX.XO.o+O@OO#OOOOO$@$OOO$@@@@@O$O$O$OOOO$OOOOOXXXXXX  XXX X.X..######o#+###@@@##@@#@@@#@$@O@@@@@$@@@@@#@@#+",
"@@$@@@$@@@#+.XXOOXOo.o.O.OOOO@@OOOOO@OO@@OO$@@O$$O@OOOOOOOOOOOOOOOXXXX XXXXXXXX .X...##.o#o###+###@@@#@@##@@@@$O@@@@@@@$@@@@@#@#",
"$@$@$@@O@@#oO.XXOO.XXooo.XOO@#O@OOO+O@O@@@@@$O@@O@@@OOO$OOOOOOO$@OXXXXXXXX XXXXX....##o##+###+#o@#@#@##@@##@$@@O@@$@@@@+@@##@@#@",
"@$@$@$@$@@@oXXOOXoO.X.O.OXXO@OO@$O#OOOO@@O@@O$$O$O@@$$OOO$O$$OOOO@XXXXXXXXXXXX XX...#######+#+##@@@#@@@#@@@#@@@O@$@@@+@#@@@@##@@",
"O###@$@$#+++..ooOOoOooOoOOOO#+#+@@@@@+@#$O@OO$$O$OO$OOO$OO$O$O$O@XXXXXXXXXXX XX XXXX#####.#+#+###@#@#@@@##@##@@O@@$@@@#+#@@@@@@$",
"$$O#$O@@#+#o.oooOOOoOOOOOOO+#####@##$##$$O@@$O$$O$OOO$OOO$OOOOXO@@XXXXXXXXXXXXXXXXX OO#$###o##+#@@+#@@#@@@@@@@#o@@@@O@+##@%@@#@@",
"#O#O##$O#++o..ooooOO+Ooo++++#+#@#@@#@#@&$@$OOOOOOOO$OXO$OO$OOO$OO@XXXXXXXXXXXXXX X..###X####o###+##+@#@@#@#@@#@oO@$@@@##+%@$$@@&",
"#$#o#O##+#++o.o.OOOOOOO+++++#########@@&$OO$O@O$O$OO$$OOOOOOO$OO@OXXXXXXXXXXXXX .X. .##$.#+##+.+++%@@@##@@#@@#@o@@@@@@#+%+@@@$@@",
"##O##+#+#+#..oo+OOOoOOO++O+@#@#@##@#@##&#O$OOO$OOO$OO@O@@O@OOOOO$XXXXXXXXXXXXXXXXX .###X#+%++#++%+++%%%+#+%#@@@O@#@#+###+%#@@@#@",
"O#O##++#+#++..++OOOOOO+OO++@#%##@#@###@$#O$O$OOO$O$O@O@OO@@O$OO$XXXXXXXXXXX XXXXXXXX#########+%%+%%++++%+#@@%@@o@#@@#+#@##@####@",
"######++++#+..ooOOOOOOOOoOO+%@##+%%@#@#&$@O@$O@O@OOOO@O@OOO@OOO$$XXXXXXXXX XXXXXXXXXXX#X+##+++%+%++%+%+++#+#@@@OO#@@#@@@++#@#@#@",
" OX .++.+.o..o.o.OooXOOOOOO@@@@@%@%@#@@$$@@@O@O@@OO$@O@O@O$O$OOOX$XXXXXXXXXXXXX X XX####+#+%+%+%+%%+%++%#+##@##o.OOoooXO+ooOOXOO",
"X ... ..o........OOOXOOXOOOO@@@#@#@##+#$$OOO$OO@@OO@O@O@O$OOO$$X$$XX XX X XXXXXXXXXX####+#+#+#+++++++++%+#+%@@+O..XXX. ...X..XXX",
"X ......o....oo.XXXXXOOXOoOO@##@#@#@+#$$$O$O$O@O@@O@O@@OOO$OOOO$XXXXXXXXXXXXX XXX.X ##++#+#+#++%%%%++%++#+%+@@@OX..XXX.....X.XXX",
"X.X.....o.....o.XXOOOOXOOOOO##@#+#@#%#@$$O@$O@@$@@@@@O@@OOOOOO$OX$XXXXXXXXXXXXXX....#.+###++#++#%+++++%%+#@@#@@X ..XX .....  X. ",
"X.... .........ooXOXXOOXOOOO@@@@#@@@@@@$$OOOO@OOOOO@O@O@$O$O$OOO$XXXXXXXXXXXXXX .........o+++.++++oo++++oooOOOO.XX...X....X.XXXX",
" ...   o.o   ...OXXXXOOXOOOOOOOOOOOOO@@$@OOOOO+OOO@O@OOO@OO@@@O@X$XXX XXXXXXX XXo o................. ...........................",
" ... o  . ooO.OoXXOOOOXOOXOOOOOOO@O@@@O@@O@OO@O+@OOO@O@@OO@O@O@O$XXXXXXX XXXXXXX ................... .  ........................",
"....o  oo.o  ooXXOXXXOXOOOXOOOO@@OOOOO@@@OOOO++OO@O@OO@+@OO@O@O@X$XXXXXXXXX XXXX..... ......... ......o.........................",
"XX.. o.o.. ... OXXOXXOOXOXOO@OOOOO@OO@@@@@OO@O+O+O@OO@++@@@O@OO@$XXX XX XXXXXXXX.. ................ ............................",
"X XX........o oXOOXXOOXOOOXO@OOO@O@X@@O@OXOXXXOOOXXOXXooXXXXXXXXXXXXX  XXXXXXXXX  ...............  .....................X  X....",
"XXXX........ oOXXXX$XOOOOOOOOOOOOOO@X@@@OXXOXX..XX..X...XXXXXXXXXXXX   XXXX XXX .  .............. o. .o ............. ..XXXX....",
"XXX ........o.XOXXXXOXXOXXOOOOOO@OOO@@@@OOOXXXXX...X..XXXXXXX XXXXXXXX X  XXXXX  .o.............. .... o......... ......X XXX..X",
"XXXX.........XXX$XXXOXOOOX$XOOOO@OO@X@@@OXXXXXXXXX...  XXXXXXXX XXXXXXX   XXXX   o o........... ....... ................XXXX X.X",
".XXX....  X XXXXXXXXXXXXOOOOOOOOOO@O@@@OOXOXXXXX.X..o....XX.XXX. X X....XX XXXXX.. o................... ................XXXX .XX",
"X . X...XXXX.XXOXXXX$XOOOXOXOOO@O@OOO@@@OOXXOXXX..XX.oo.XXXXX.. X XX....XXXXX  X... . ...............o. .....o......o...X XXX. X",
"XXX.X...XXXX.XXXXXXXXOXOOOOOO@@XO@O@O@@@OXXXXXXXo.oO...XXXXXX.XXXXXXX ..XXXXXXX ............. ......   o +..oo++...o..ooXXXX.X.X",
"#X#XX... XXX.XOXXX$XOOXOOOOOOOX@OOOOOO@@OOXXXXXX....oOoXXX X X..XXo Xo.  XX XX X....................o o .+++++++@o@++o@+OO@@O@@O",
"#####...XXXXXXOXXOOXXOOOOOOOOOOO@O@O@@@@OXXXX.........oXXXXXX XX X ....XXXXXX XX.  .............. .... o.+**+*%%#&######%%#&###&",
"&&&&#.ooOOOOOOOXOXOOOOOOO#OOOO$O@O@@@$@$@XOXX.oo..ooo..XXXXXXXX XX.....oX XXX X ............. .   . .. o+++**+%%#%#&&&&&&&&&&&&&",
"*&&*#o#.OOOOOOOOXOXOOOOOOOOO$O#OO$@@$$$$OXXXXX....oooOOXOXXXXXXX..XX  X X X  XXX.. ............ oo o....o++++*%%#&#&*&****&&&=&&",
"&*&&#.#oOOOOX$OOXXOOXXOOOOOOOOoOOOO@@$$$$@$@@@@@@+@#@@@@@@$@@@$OX.. XXXXXXX  XX . ......... ....  o ....o+++*+%%###&&*&%*&&&=&&=",
"*&&*#.oOOOO#oOO.XXXXXOXXOXOXXOXOXOOX####X###X#X#%+%+%%#+#%#+@$@OX.....................................XXX#$#$$$$###&&=##=#=&==&=",
"&**&##OO#OoOoOO.XXXXXXXXXXXXoXXXXXXOX####OO###o#+%#+%+#%#++#@$@@X..............X. ......... ........... X#$#$$$$&##&&=====&&&&=#",
"&&&&#OOOXOOooOO.XXXXXXXXXOXOOXXXXXOXX$#####Oo##O%+%%+%%+@@%@@@$O.XX. X.........  .......... ...........XX#$&$&$&###&&&&=#=#&=&=&",
"**&*#OO.OO#oOo#XXXXXXXXXXXXXXXOO@XOO#X###XO###o#++++%+%##%@#@$@+XX. o.......... .   ........ .........XXX@$$$&$$%#&%&=&&=&=&#&=&",
"**==##.##o#o##XXX$X$OOOXX@XOXXXXXXXO@$$$O##ooo#o+%+%%++%@###@@$O o .oX X.X. ..X ........  .... ......XX X@$$$$$$#%#&&==&=##&====",
"*===####o#o##o#OOXXXXOOOXXXX#XOXXXOXO$O###o#####%++%#%%+#@@##@@O. o. o XX.XX..........   . ..........XXXX@$$&$$&#%#&=&&&&=======",
"====###.#oo##OOO$XXX$XOXXXXO XXXOOOOOO$##Oo#o#o#%++%+%%%+@#@@@#+.. o oXXX. XXX.... ...   .......... XXXXX###$$$$&##&&=&==#&&====",
"====#######O##OOXOO$XXOOXXXXXXXOXXXO$$$####o#o#o++%%+++%%#@#@#@+... o. XX.X..X.X...... o ........... XXXX#&#$&$$##&&=&&&&==$====",
"====$OO#o##o#oOOOOOOOOOX.OO XX O OoX+###O##ooo##++%%%++%#@$@@#$O.X..........XX X.... . ..+++ooo+oo+ooooOO$&&&&&&&&&&=&=$=&&&====",
"====$#$O#o#oo##OO@XOXOOOX.XOooOXo oo++#+#O#O###+%+%++%%%@#@@@@$O.. .........X XX... o ..++o+o+++oo+o@oOOO&=&&&&&&=&&&=&==&=&====",
"====$$O$#o##O#OX@X@XOOOXO.O.XXO.Ooooo#####o##++#+#+#%%%+%@&@$@@O.  .........XXXX........o+o+o+o+++ooOOOOO$=&=&&=&&&&&==&&&&&====",
"====$$$Oo##O#O#OXOXOOOXOXX O OX.o..o+####O#O+#+#+###%++%#@@@$@@O  . ....  .... X .......++ooooo+ooo+OOOOO$&&&&&&=&&&&&$=&==&====",
"====$$$$$OO$OO$XOOOOOOOOO.O. O.OoooO###+#+@++#+#@##%###@#@#@@$@O .......XX.....X  ......o+++++ooOOOOOOOOX$&&$=$=&&&&=$=&=&&=====",
"==;$$OO$#O$O#O$XOOOOOOOo.XOXOXoooXO o+##@@#@#+#++##+#@#$@#@#@$$O ...o...X..... X........++ooo.++OOOOOOOO$$&&=$=$&&&&&&&=&=&&&===",
"====$$$OO$O$$OOOO@OOOOooX.XXXo.OOX.O@#@##o#@@@++@@##@#@@@@#@@@$O... o...   ... X.........++oooooOOOOOOOOO$$=$=$=$==$&=&&=#=&====",
"====$$O#$O$$O$$O@OOO#Oo.OOXX.O.XooXo+@@@#@@@o#o#@+@@#@$@$$@$$@$O........XXX..XXX.........+.ooo+oOOOOOOOOO$=$=$=$=&=&&&==&=&&&===",
"==$;$$$@O$O$$O$XO$OOO@OOXXXXXXOXoXoX#@+#++o#+++@+#@#@@#@@#@@@$@OX XXXXXXXXXX XXX...XXXXXOOOOOoOOOoOOOOOo+##**##=#=#=#=#=#==#--==",
"====$$@$$$$OO$$OOOOOO@OXXOXOXXOXoooOo#####@##+##+###%@%@#@@#$@#oXXXXXXXXXXXXXXXXX...X XXOOOOOOO+ooOoOOoo+%*##**==#=#-#-#-##===*=",
"====$$@@$O$$$O$OOOOOO@OOXXOXXXXOoX..o######@#####+%@@##@#@##@@@O XXXXXXXXXXXXXXX...XX . OOOOOOo+oOO@o@@o#%=#=#=#*=#=#=#-#-#=*=*-",
"====$@@@O$OOO$OOOO$OOOOOXOXXOOXXX.+.#####+#@#+#+@###$$@#@#++@##OXXX XXXXXXXXXXX X.XX X.XOOOOOoOooooOoooo+##=#=#=##=#-#=#=$=#==**",
"==;$$$@@O$O$$OO$OOO$O$@OOOOOO#O#@#+#%***%**&**%#####@@$@#######+XXXXXXXXXXXXXXXXXXXXX...O+OOOOOOoooooOoo+###*#*#*##***#=**#***-*",
"=;$;$$@@$O$OO$$OOOOOO$@@OO#O#OOO@@#@%%***&&***%%####&$&$%%#%###+XXXXOOOOXXXX XXX XX X...oOOOO+Ooo@@o@@@###===*==*-=====-====*=**",
"$=$$$$$@O$$O$OOO$OO$$$OOOOO##O##@@#+%******&&*+&#$$&&$$&%&%%%%%#OOOO@OOOOOXXXXXXXXXXX...OOOOOOOO@&**&&&&*-------------------*#**",
"$$$O$O$@$$O$O$$OOOO$$OOOO#OOOo#o+#+#%****%*&**%%$$&$$$&$%%%%%%##OOO@OOOOOOXX XX XXXX....O+OOOOOO@&*&&&&&#*#*#*#*#**##==##***+##+",
"@O$O$X$$X$$XOO$OOOXO#O#OXOOOOOO#@@o@$&*%*%****##&$$&$$$$$$&$#%%#oo@ooOO@OOXXXXXXXXXXXXX XOOOOOOO@&**&&*&&&*&*#**#=#=$=#=*#=##@@@",
"OOOXX$XXXX$XX$XOOOO#O$OOOOXO#Oooo@@@#&*%**%***###&$#$$$=$$&$##%#o#o@@OOO@OXXXXXXXXXXXXX OOOOOOOO@%*%&&&&&&&&#**#=$=$#$#$####+oo.",
"OOOOXXX$XXXXOOOXOOO##OOOOOO#Oo#o@O#O@##########o#O#oO$O@O$$@o##ooooOOOO@@OXXXXX XX XXXX OOooOOOO+*%&&&&&&&&*#**#$==#$$$$#*##OOOO",
"OOXOX$XX$X$XOOOXX#OO$O#OOOOOo#OOO@O@O######### #O#OOO$OOXOOXooo+o@@oO@OoOOXXX XXXXXXXXX XOoOOOOO+%%&&*&&&&*%*#**=##=$$=$####OOOO",
"OOXOOOXXXXX$XXX$OOO#O#OOOOOOOOO#@O@@++#+####%#+oOOOO@OO@OOOOOo++OO@X@@OO@OXXXXXXX XX XX .oo+OoOO#%%*%*&&*&*%%**#$=#$$$$$$$$$OOOO",
"OOX$OO$OX$X$$XX$OOX##OOOOOOO#oOOO@@O@######++#++@OO@OOO@@OO@o#++O@O@O@O@OOXXX XXXXX XXX O.++oo@o+**%*%&**%%***&&=##==$$$$$$$XOXX",
"O$XXOOXOXXXXXX$XOOO#O#OXO#OOOXO#OO@o@###+######+O@OO$OOO@@XOoo#o@OOOOOOOOOX  XX XXXXXX  O+++oOOo#*%*%*&%&%*%&*%*$==#$$$$$$$$X$OX",
"XXXXOXXOX$$XXXXXOXXOO#O##O#O###O@@##@#%%%#####.+@O@OOOOOXOOOoo++OOO@O@OO@XXXXXXXX XXXX Xo++o@OOO+**%*%&*&*&&&&*#=#=#$$$$$$$$XXXO",
"XXXX XXXXXXXXXXXXOXOOOO$$$$$$@$$##$#$*%%%%%&%%+#@OO@O@OOOO@O@ooOOO@OO@O@OOXXXXXX.... ...ooooOOOo#**#**#*%*%*%*%*#=######*###oo..",
"X XXXXXXXXXXXXXOXXOOOOO$$$@$$$$$$##$####%&%&%%++@@@O@@OOOoOooo@@OOOOOOOOO@XXXXXX........o##oOOOX+#**##***%*%****=##=########oo..",
"XXXXXX XXXXXOOXXXXXOOOO$$$$$$$$$##$#$$**%*%%#%.#@OOOOOOO@oo@O@oOOOOOO@@OXOXXXXXX.........#o.OOOO+#*#***#%***%**+=#=#%#%%#*%%X XX",
"XXX XXXXXXOXXXXXXOXO$OX$$$$$$$$$###$#$##%%%%###.@@@O@O@OO@o@ooOOOOX@+OOO@XOXXXXX ........o..OXXO##*###*#*%%%*+*%#=###%####%%XXXX",
"XXXXXXXXXXXXXXXXXOOO@OO$$$$$$$$######%%%%%%%%%.#OO@OOOOOooo@o@OO@Xo+++OOOOXXXXXX .........XXXXXX####%%%#%%%%%%%%#*%%%%#%####XXX ",
"XXXXXXXXXXXXXXXXOXXOOOX$@$@$O$#######%&&*%%%*%#o@@@O@O@Oo@ooo@o@OOoooO+OOXXXXXX ..........XXXXXXo###%%##%%%%%%%%%%%%%%%%####..XX",
"XXXXXXXXXXXXXXXXXXXO@OO$$$$@#########*%%%%%*#%##O@OOOO@o@o@ooO@OOOOO++O+OOXX X X..... ...XXXXXXX####%%%%%%%%%%%%%*%%%%%%&###XXXX",
"XXX XXXXXXXXXXXXXOO@OOO$$$$###########&&%%%%%%+#@@O@@OOOOOO@@ooOOOOOo++OOOXXXXX ..... ..o.XXXXXXo##*%%%%%%%%*+%%%%%%%%%%####XX X",
"XXXXXXXXXXXXXXXXXXX$OOO$@############*&%$&$&$$O@@OOOOO@O@OOOOO@o@ooo+oo+OOXX X X.........XOXX.o.+#######%%%%%+%%#####&&#*###o...",
"XXXXXXXXX XXXX XXXXXOOO$$########%%%##&%&$&$$$@@O$$OOOOOOOOOOOoOOOoo++++O@XXX   ........oXXXXX..+###*###%*%%%*%*##*#######*#oo..",
"XX XXXXXXX XX XXXXXOOXO$$$##########$$$$&$&$$$O@@OOO@OOO@OOO@@O@OOo@o+@+OOXXX  ...........XXXX..+###%%&#%+*+++*+#*###&&#####XX..",
"  XXXXXXXXXXXXXXXXXOOOX$#########$#*#**#$&$&$$O@O$O@OOO@OOOOoOOOOOoo++o@O@XXXXX..o........XXXX..O###%%##**+**%+*%%*######*##XXXX",
"XXX X XXXXXXXXXXXXXOOOO$#########$#$$##$$$$$$$@@O@@OOO$OO@O@@OO@OOo@@ooo@oXXXX ......XXXo.XX.o..+%%*%%%%*%%+%%%*%%%%#&###$$$XXXX",
"XXXXXXXXXXXXXXXXXXXO@OO$##########$$#$#$$$$$$$O@@OO@OOOOOOOOOOOO@O@oOo@oooX.  .......X.XX.OX....+*++%%+%+%%%%%%%%%#%###&#$$$XXXX",
"XXXXXXXXXXXXXXXXXXXOOOo#########$$$$$###$$$$$$O$O@$XOOOOOOO$OOOOOOOOO@OOO@..........XXXXXXXX...o+++*%%*+%%%%%%%%####$#####$$XXXX",
"XXX XX XXXXXXXXXXXXXX..@###+####O#OO#OOO#$$*$$$$=$$=$==$=&&&=&**=**#OOO@oo... .o.... X.XXXXX...++**+%%%*%%%%%%%*##*#$$=###$$XXXX"
};
