/* XPM */
static char *Texture_128x128_10_2[] = {
/* columns rows colors chars-per-pixel */
"128 128 91 1 ",
"  c #1D89BE",
". c #208BBE",
"X c #26A6BE",
"o c #1D8EC5",
"O c #1B8FC8",
"+ c #1E90C7",
"@ c #1F93CB",
"# c #1E96D1",
"$ c #1F99D4",
"% c #1F9DDA",
"& c #208EC3",
"* c #2192C6",
"= c #2398C7",
"- c #2195CC",
"; c #229ACD",
": c #2097D0",
"> c #229AD4",
", c #239ED9",
"< c #26A5C4",
"1 c #29A6C6",
"2 c #27A9C4",
"3 c #29ADC4",
"4 c #25A4CD",
"5 c #28A6CC",
"6 c #26AACC",
"7 c #29ADCB",
"8 c #2BB3C5",
"9 c #27B1CC",
"0 c #2BB3CB",
"q c #2DBACD",
"w c #24A3D3",
"e c #28A6D0",
"r c #27A9D4",
"t c #28AED3",
"y c #24A2DC",
"u c #28A3DD",
"i c #25AADC",
"p c #28ADDB",
"a c #2BB4D4",
"s c #2DBCD4",
"d c #26B2DE",
"f c #2AB4DC",
"g c #2DBCDC",
"h c #25A5E2",
"j c #29A6E2",
"k c #26A9E5",
"l c #29ABE5",
"z c #27ABEA",
"x c #29ADEC",
"c c #26B3E4",
"v c #2BB4E4",
"b c #27B9E3",
"n c #2CBBE3",
"m c #27B3EB",
"M c #2BB3EC",
"N c #27B9ED",
"B c #2CBBEC",
"V c #30BEEC",
"C c #27AEF1",
"Z c #29AFF0",
"A c #27B2F1",
"S c #2BB3F3",
"D c #2DBBF4",
"F c #2CB6F9",
"G c #2DBAFA",
"H c #30BEF4",
"J c #30BDFA",
"K c #2EC2D4",
"L c #2FC8D7",
"P c #2FC3DB",
"I c #31C5D6",
"U c #31CCD3",
"Y c #30C4DC",
"T c #32CCDC",
"R c #32D0D6",
"E c #36DCD5",
"W c #34D4DC",
"Q c #35D9D9",
"! c #2EC2E2",
"~ c #2EC2ED",
"^ c #2FC9EE",
"/ c #30C4E1",
"( c #31CCE4",
") c #31C4ED",
"_ c #31CAEB",
"` c #33D2E2",
"' c #2DC3F3",
"] c #2CC8F3",
"[ c #2DC0F9",
"{ c #31C3F3",
"} c #31C0F8",
/* pixels */
"{{{{_{_{)H)HVHVHHHSSSSSSSSZZZxxxxxxzxljzjhhuiuhyyyyi,y,,,$>>>,,,,,>>,,,,uuuuuuujjjjjjjjjxjjjjxxjxxxxxxSSxSFSSJJFJFJJJJJJJJ}}}{{{",
"{{_{{_{{{{H){HDDBDSHHSSSZZZSZZZxxxxzzzzjjkhkhhyuyyhyu,,,,,,,>,>,,,,,>,uuuuuuuuuujjjjjjjjjxZxxxxxxSSxFFSSSFFSFJFJFJJJJJJJJJ}}}{{}",
"{{{{{_{)){H{VHHHSHHSSFFSSSSZZZZZZZxxxxzxzkkjhlhhhihyuyyy,,,,,,,,,,uuuuu,uuujjjljjjujjjjujjjZxxSxSxSxFSFFSFJHFFJFJJJJJ}}}}{}{{{}{",
"^{{{{{_{{{)H{HHHJHFFSFFSSSSSSSZZZZxxxxzzzxjkjyuyhhhyhhyhyy,y,,,hjjuuuuuuuujjjljljxjxjxxxZZjZxxxxFFFJFJFFJSJJJFJJJJJJJ}}}}}{{{{{{",
"))))_)))))H)HHHHHJDJFDSSSSFSSSSSSZSMxMxxzzlkkkhiiyyuhyhyhyyyhyy,,,hhjjujujjjjllljxxxxxSxxxZSSFFFFFFJJFJJJJJJJJJJJJHHHH{{){)){)))",
"))){{))){V)DVVHHDSFFFFFFJFFSFSJSSSSSZSZMMxxxxlzhkhhjyhhhhhhhhyhuhjhhhjlxllljllMxSjxxZxSSZZZSZFFFFFJJJJJJJHHHHHHHHHHV{VHV{HV)))))",
"HGHHHHJJHJFHFFJFFSFFSSDSSFDFHHHJJHHHJHJHDDGHDDSDSSSmmmmmzzxmzzzmxzzjzzkxSlxMZZMMxSSZFZSSZFZZFSFFFJSJJJJJJJHHHHHHHHHHHHHHDDFHHH{}",
"FFFFFFFSSFSSSMMMMBBvBnBBB~VVV)VV/))_(_()_)___){{'{[{GGFDDDSASSSSSZmSxSMZSHSSSSMSSSSSZFSJFFFFFFFFFJJJJHJJHJHHHHHHHHSHHVHHDFHFHJJJ",
"FFSSSMMMMMMMMvvvvvvvgvgng/g///((`(T`WWWWWW`W````(__{]]}}}}}[GGDGGNDAAFNASSZSFSFSSFSSSSSSFFFFFFJFJJJJJJHJHHHHHHHHDGDDDFGGGFFGGGGF",
"SSMxMxxxxMMllvvvvfgfggggYgYYTTTT`TWWWWWWQEQQQQ`W````_^_^^}][[[GDGGGGGGGFSJJSSFSJFJFFHSSSFFFFJFFFFJSJHHHHHHHHVHHSDDDDDFFFGFFSSSSS",
"ZZZxxxlllvjllfjvfffgfggsgYIITYTTWWWWQQEQEEEEEQQWW```_`___^{^{{'}[[GGGGGFSFFJJFJFJFFFSFFFFFFFFFFJJHJHHHHHJxHHHHJJDDFFFFFCFFFSFZSC",
"xMZxxlxllllvvpfpppfaffggsYgYYTT`TWWWQQEEEEEEEEQQQQ`````^__{^{^]][][[G'[GJFFJJJFFFFJFJFFFFFFJFJJJSJSHHHHHHHHHJSHJAFFAFAFCFSSSZSZC",
"xxxZxllllllfllpffpffffgggggYYTT/(WWWQEEEEEEEEEEQQW````_`__^^^}'[[[[[G[GGFFFFFFFFFFFFFFJSJFFFFHHSHMHMHVVHHVHSJHHjGDFAFCFFCCZCZZZZ",
"Zxlljllljjlpufvfvfffgfgg!gYYY//((WWWQEEEEEEEEEQQQ``````____^^]{''[[[[GGGFFFFFFFFFFFFFJFJJFJJFVSHHHHHVHHHHHHHHHJJDFFFZFCCFCFFSZZZ",
"ZZxxZlllfjllfjfjfffffnggg!n///((T``WQQEEEEEEEQQQQQ````^`__^]}][[[[G[[GGFFFFFFSFSFFSFSFSFFFSFFHSHHlHVHVVHlHHHjJHSHSFFFFFFCCZZZZZZ",
"xxxxxxxxMlvlvlvvvvvvgvgnnP/////((``WQQEEEEEEEQQQ``````_^^]]}}}[[[GGGGGFFFFFSSZFZSZSSFSFFSSFFSFHSSHHHMHHlHVlHJSjJSmSFZFCCFCZZZZZZ",
"ZxZxlxlxMlvlvlvvvvvvngng/n!!!((T`W`WWQQQEEEEEQQQW```(^^]]][[[[GGDGFGFFAAAZSSASCSCSSSCSSSFSSSSDMHHHHMHVHVMHxHxHHSSSSSSSSSSSSSxZZx",
"ZZZZSxSxxMlMlvvvvvvnnVVn~/!(//(TT`TWWWWQQQEQQQW````^^^]][[[GFFFFFAAAAAAASCCzCCSSZASZSZASSSSFSSHSlVSHMHlMVMHMHSxHSSSSSSSSSSSxSxZF",
"ZZZZxSxMMMMMMvvMMnnBnnV/n!//TTTTRTRQWWWQWWQW`````^^^]''GGGFANAAAAAACCCCCzCzCxzZZzZZCCCFSSSSSSSSBHMHMVSxHMMxHxHHlSMVZSSSSxxHxZFZZ",
"SSSZZZSxSZZMMVMVnvnnnVgnY/PYPPTTTTRRRRWWRWWW```(^]''[DDDAAmAAAAzzzkzzhzhhzzzzzzzxZzSCCCCZSSSSMVMMMMVlVHMHMVxHxxHVMMSSMxMxSSSZZZZ",
"ZSMSMMMMMMvMvVvvVnn/nYYYYYYYTLUTLUURRRRRRRRT`/!~~[DNNmzzkkkkkkhhhhhhhhhhhyhhhzzzzzzzxxCZZZSxMMMMVMMVVlMVlVMlVSlSxZMMxMSxSSlVSSxH",
"ZMMMMMMMvMVvvvnnngggYggIIIIULLUUUURUUURLRLLT/~~BNcmcclliki%yyyyyyyyy,yy,hhhyh%hzzzzzxxxxxxZSMMMMlVMlVlVlMMMMlVHlMMMMMMMMllSlxxHl",
"vMvvvVvvvMvnnnnnnggggYgYIIIIIUUKLUUUUULLL/P!NNczlhyiyw,www%%y>%,%,,,,%,yh%%h%hhhjjzzzzxxZxxZZMMMlHMMlVMlVlMlVjlVMMMMMMlMVlVlVljl",
"vvvvvvnnnfnvvgnggnnvggggggnYggPgPngnngBbccmziiiyw>w:>:#>#$$$>>:w##:%>,,%%%h%hhhhhhhhzzxxZZSZmMMMMlVlMMMVlVlVlVljlvMvMvvvlVlVlVlV",
"ggggfgVgnggnnnngfgvffvgvvvffvfffdpppprrwiwwwww$w$$>$;$$=$;@@@@#@#;@>;>>>yy,y%kkkjzzzCCCACAAmmmBBVlvvVlVllgvlgllVgflllgVlVlfggVgf",
"gggggggggnggYgnggggggnfffgfffffpptrrrwwwwww>$>;@;;@$$;@@$@$;>$@@##;$$>%w%yyyk%kkzCCCAAAAAFNABbvvlVlVlVVgVjgVgVgfVVggglggggVggfgg",
"ggYYYYgY/g!!/nYnnggggggfggfgffattrrrwrww>4>44#$4$##=@>%$$@@@@@$4$>#>>%%%y%yhzkkzmzZZAA[ADNDDBBBnVgVggVgggVggggfVaggggggggggggggg",
"YgYgggYYYYYPY/////gaggfggfgfafaptt6444444ww>4>;@$;;$>:#;;$>>$>$#@$:%>%wyyyhh%kzAAAFF[A[NDD~NB~BBgVgVVgVggVgVggggggggggggggasqggg",
"IgIYYI//PTPTP!/!/nYgggssaagffattttrr66>44;;;$;$4>#@;@@>$;##@$$$$>$:%>w%yyyhhkmAAAAA[[[[]['~~~Nb!V/VggggggggggggggggggIsgIggggIsg",
"sIgYIYYYPPP!/PT!////ggfsgaaaattt6r64w444#4;w$<;#$;$$>$$@$>>$$#4>%w%$>$%%yhkkzzAAFGGGA[[[''~~~~~!gggVgggVIggasggssgsIgsssaIqIIgIq",
"sIsIYIIITLTPTPPPPYgggssaaaaa7t6r644;4444;ww;$;;>=##>$>;#@#@#$$$>$>wwyyyyh%zkzmAAGG[[[[[[']~~~~b!/gggYggggggggggssssqsIsIsssqIqsI",
"sssIIIIIPKKPPPPPggYgggaaaa0tt7654<4444;4;4;;;;$@;@@=#$@>##<###>>$>%%y%yhhdzzAAAAFGG[[[N]~N~~!!!bgggggasgggsgaagqsgssqaqqssssqsss",
"IqIqsIsIIsKsKssgsssaaaaat967t664644444w;w;;>;:>:@;@#=@#>#;@$$#;>%%%%h%kkczzzmAAAFDDDD'~B~~~!!bnggnggggaggasassssassqqsssqqqsqqqK",
"qqqqqqsqqqsassss9saaa99675664<464<<;4;;44;4;>4>>>>>%>#;$>%%w%%>>%%%i%k%%hzzAAFAFFDNDDBBBbnbbggfgffafaaaaasaaaaqa000sqq0qqqqqqqqq",
"UXXUqqqqqqqq00009a9966967766664<4<w4;44;>;w>>;;;;:>:#>$>>%>>%%%yi%%kkhkkkkzCCAFNmNNNNNbBbngddffaaaaaaaa0a00a0aa0000qq0qq0q8qXU8q",
"XqqX88880800009337569666<55r64r4444>4w;>;>;>;>>w>>>:>$$>>>#yy%wyyi%hhkkkkzkAzmmcmccbbbcbdbffdatdaaeat5aat7a00000000788800888qXqX",
"XqXqqX083803933736264666r444444ww;4;4>www>>>>;>;>>w>%>>:>w%>y%y%y%hhihkzkkzzkmmmcccddpptpptdtttttate577t7a77t77077999333qqXUXqXq",
"XX8q8q30993907756666644w4464w4444w4ww>;;;>w4>>>,>:,>>y>%,%%yyyy%hhhhhhh%%zkkklhpckppppppttrr6rtreeee5151157770777t9690998XqXqXqX",
"UXqX8883397796666r66r4w6rw6w46wwww4>w>>>;>>>>>>w>w>>w,yyyyyyyhhh%hc%kkkkczihyiiiiiiiiirrrrrrrrrerrrre5511155777777762622X8XXqXXX",
"XXX88837777766664rw64w664w>rw>%w>yw,>4e,,w>>w>>uyuy,uuwyyyhyyhhkzkkzhhhhhii%hiiyuiirrwiirwrewwwewwerreue555557ee6e66696988UXXXqX",
"<<7222257566rrr4w444www%wwww%%w%w%%ww%i%>w>uwywy%yihyhiyuyyyhyhihiyhihiiyrwwyrriwrwwiiwwewwwrwwwww4;ewewww6ee4ee4rw4w6<655577711",
"44<=44ewrwwwwwywwii%i%w%kyhiiik%hihyyii%yjhihhihkkkhkkkkljiiiihhhiiiiyiyiiiyw>w>wwww;44>wwwwwywwwwwwwwwwww>45eee64wwww%wee444eee",
"w,wy%>>w%w,yyy%y%%%iwihhhikkkccccmzmmmNcvlclmcmmNNmmbcccdcclciiidciiiiiiiyyrrw%4>;>wwww>>>>>wwwwwww,w;>4>ww>e;;ew%%w%ww%>;ueu;,e",
",,>%,w%,w%,,%%wy%ii%%iiiiiiidcbbmcbmmNNNNDNNNDBDN]NND'DNNbbvcdpiiwiiiii%rwrwwwwww44;;>wwwww>>>#>>>;>>>ww>>4;;;;;w>ww$w>$>,>>;>>>",
";>>>,>,,>%>%wy%ww%iw%i%iiidddbdbbbNbbN]bNNN['''][]]]''''~BNbvfffdrw44wwrwwrwwwwwwww>w4>www>w>w>w>e,>>;:>;w>w>we>#;4>,$$,$,,%,>>>",
">>>>>>>,w%w%%ww%i%ririiidddddbbbbb!~b]N]]]]N''~]]]][]]~'BBBbcdirrrii4ww4w4%ww4><;;;w;>;>;w>w>>w>>>;;>w>w>>w>>:;;4>;>:,$>$##$>>>,",
",>,,w,w%%>%w%ywy%w%iddddddddbbbbb!N~bN]N]N]]][']]]]]['B~Bbbvdppuwrw444ww4$w$$44$4$;;;;;;;;;>>ww$>>>4=;--=;;:>>>>;-;;::$$,,,:$$>,",
",,uuyyyw>>w%iywiidiiiddddbdbbb!bNNb~]N]]N]N[[]]N][N'~NBbvfdppreww4w4w;www4;<=#;=;;;;;;;;>>>;;#>;>;>>:;;-;@;@--=>>>>>:,$###::::,,",
">,yyyikh%yw%>riiihdkkkddbcbbbNNNN][N][[N['N[N]N~N~NbNbcfppprreee444;4;1;;=;;;4;#=@@=#==@w;>;>>$>:;;;>>=#-@@;;@:#;;>>-->>:>::,:::",
"yuyykyiywyyyyi%iiidcdccccccmNNNNNNNNNNN['NNNNNNNccccdppiur54ee544;4;4=;=;;=;=@#=#><##==+@@=#;:;::#;#=@@:;--+@;::>>>;>>>>>:::::,,",
"yyhhkkkkyywyyiyiikkmcmcmmmmNmNNNNNNmNNNNNccccciccipiiwwwee;e;;4;<<;<;;;=;===@;;;;=@;;#;#@=@$@-;@;:>>#;@=@-;:-@:;:>>;>>>>$$$,,,,,",
"yyhhiykhy,yu%ihh%ki%%kkkzcmcmcmzNbmmcckdkikkhi%i%i6wee>4;e;;;===#@@#;;===;;;;=@@$;>=#=#=@=@@;@@;:@@#;::@=@@;::-@--;>:>>>,$,$,,,y",
"ywy%%%yy,,,,yyyy%i%ikiikkkkkkiikiiii%iidiiwrywwwwwwwww;w;==========***=+-;;=<=@#-#=#----$;;@@=+@=-@-;@:;#@@+o-:::---->>>:$$$>,,,",
"#>#$$$>$>;;-@#%,w%%w%%%%www%wy%w%%%4%%$%>w%%%>%4$>$;:;>=;==;==*-+=+=*=*=***=+==@:@@@@*--+#@;#@;@#@@-@@@@;@#;-+++:;::;;;>>,$$::::",
"--@@@#@;::>;@>-@##;$$;$$;$@<$$@$#;;;;4##;;<@@=@#@@@;;;;;;;-==*====@;*====*---;;=+*@@@@-O++++;-#--@@++@@:@--;::::*-:::::;>>:##::*",
"*;;#@@@@;:;;>@::##$;O;OO$@$#@#<#@#;@O@@#$@@;##=#@+++o*-=;;--;;;-=-=@=@@-*****---;;:@@-::#=@@+++-+@+-+=@+@@@##--:::---:---::##@@*",
"*&&*--@##-:--::-@@@@@:;@@+#=#@=@@<@@@@@@=@=@;@;;;=#@#@@@@@<#--------*O----@----*--*:--#O@##@@*++@#@@-@-@@*@O::--*-*-::::---::#--",
"--**&&@@OO**-**:#@@@+++++@++++#+@@O@@@@@+@X@+@@@@#@@@@@@@;==------**---O+o++-=*-*-**-**-++++++#@@=@@+@@@*@@:O&O##:OOo&-@-----##-",
"--*+&&--@@-**-**+O@@-@+++++++++++@#@@@<@@+OO++@+@+@@@++ o oo*----;----#O@#@OO**-*-O--&&&@+@++ooo++@@@@#=*@@*-*O*O-:-*OO*&&*-&OOO",
"oo&ooo ooO@--*--#@OX@@@@@++++++++++.++O@@#+@-+@+@@+@+++@oooo&&&o**----*#@@@#@--*&-*---*-@@@@+@@++++@@@+oO@@*O---O-O#*-@@-**&-*O@",
"O--+++*ooOooO*&O++@+@+O@@@@@@++++++@@@+@+#@+#+@@@@@##@@@++@@o+*--*-*&-&&ooOOOO@@@@:------@@@@@+@@+@+@@@@#O&OO*:O-*O-O&O**@-*-&&o",
"@o@@-:*-+*-@O-&-+=+++@@o+++@@@@+O++@+@@#+#@#@@++++@@@@@@#@@@@@@***&----*oOOOoOOOO#----**---@@@++o+++@@@@@*:@:@@**OOo@@*OO&*----O",
"@@@+*+---@*OO:-*@=@@@@@@+@++++++@@@O++++#++@##-@.++  +@+-@@@+@+@@@-*o--*O@#O##OO#OO#-*--****++@@@@ooo+@@@:O@*@O*:*--O**O*OO*&---",
"+@O@*#*--*@-OOO-+@=+@@@@@@@@+@@@++++@@+O++#++++@;@+++.++o+@@#O@+&*&*&o----#OOOOOO#O@@:-------O@@+@++++++@@@:@@--OO-O@*O@*@:**--&",
":@o@@&@&&:&:@@O@&@@&&&&&ooo@@:@@@-@O@&O-@@@+&@@:@@@@@@&&&O O@#@#:@@*@*&&&&&&#OOOOOOO OO##@@#::-@@:@@@@@@@o@@@:@@@@@@o@&ooooo@@@@",
"&@oo@@@@:&:&&@@@:@&@@@&:@@@&&&&@*@O-O-@@@@:::@Oo@@@@@@O@O&@&&O&&@@@@**@*&&&@&oOOOO OOOOOO&&&&&**-&O&@@@@:@@@@@@@@@@@@@o@@o@@@@-&",
"@:@@@&&@&-&-@&@&&@&@@@-&@o@@@@@@-@-@--O-@O@@#@:#@@@@@@O@&OoOO&@@@O@#@@*&&&O&*@O##O#OOOOOO@#@-*&&&&&&     o@@@@@:@@@@@@@ooooo@&&-",
"&@:o:@::&:::&@&@@o@@&@&@@@@@@@@@@@O@@::@:-@O@o&@@@@@O@@@OOooo&O@@#@@@#@@@*&&&&@@O#OOOOOO#@O@@@:@@-@&@@@Oooooo@@@@@@@@@ooo. o&&--",
"@-&-:O@::&:-::@@@@O@@@@-@&@@@@@@O@@---@@@-::@@@+&@@@O@@&@@OOO&ooo&@@@@@@@&*-&&&&@###OO&&OO#OOO&#--:-&@:@:--:-@:-@:@@@@@@@&o&. oO",
"@&:&&&oo&:&-@&&@@@o@:@@-@:@@@@@@---OO:@::O@@::@@@@@:@#@@&&@@@@O&O@O*O@@@@--*@&&&&&&O###O@&&&OO#&&**::@&.oo@o@@@:@@@@@@:@O@OOooo@",
"@&&:&@@o@&:&o@@@@@@@@@&@@@@:@@@:@::@-&O@@::@@@@@@@@&&#@@@#&&oo*@@@@*@@@@@@@@--#&&&&OOOO##@@@##OOO&***@@-oooooooo@@@@@@@@::@&@&O&",
"&:&-@@:o:&--:@@&&@:@@@:::::@:@::@-@::::@@@&O@@:@@@@@#@&@@@@#@&OO*O@#@@@@@@@@--@@@@@&#O#@@#:@@@&OO@+**--@-oooooo:@@o@@@@&& o@OO@o",
"&oo:@:--@:O@@::::@@@@@@:#:::::::::::O-::::@@&@@:@@@@@@@@#@@@@@*@O&&&O@OO@&O@@#@@--&-*-@OO-#:::--@O oooO-------o&&@@@@:@::Oo Ooo&",
"@:@@&:--:#@:::::@@@@:::::#:::::::##::-:&@:::::@@@@@@@@@@@*@#@#@@O#O@O&&@@@O&&&&&-@@-***@##OO*O-:@+Oooo&*-@-*-&@o::@:@@@:::@::@@:",
"::@::-::::#:::::::::::::,###,:::::::::::@@@:@@@@@&&@@@O@@@*@*@@#@@&O@@#&@O@@$@O@*&-*****OO@@@@O*:@++OoO&**----@ooo&Oo&@Oo::::@@@",
"ooo@---:::,:::::,,:u:u:u,,,,:,,::::,##::::@@@@:@@@O@&@&OO@@@*O*O@@@@O&&&&&@#@@#@@*-*-@@@-*O#@@-:**-::Oooo@*@@:-::OO:@O&oO&oO@@:@",
"::@:----:,,:%%,,%,u%ju,u,u,u,,:,,::,:::::::::@@+@@@+@@@@@@@@:*:O&@@@@@@@&@@@@@&@@@O:**&----O#O@@--:---@@Oooo----::@:@@:@@&o@@@@:",
":::::::::,u,,,hu,,,,,,,,,,,,u,u::,::,:#:@@::@@@::@:@@@@@@@@OOO::@@O&&@::@@@@@@$@@@:O--&-o&--#O#@------@@@OO@ooo@&::::@@@@@::@:::",
":::,::uu:,,,,,%uuhh,,h,,,,,,:,:,,,::::::::@+@+@@++++@@@@#@@@*@O*@@$@@:@@@$@@@&@@::@#*:**&--&.oO@-@+&&&::-*o.ooo---&-::@:@:@oo:::",
"::,:,u::,u,,,h,hu%h%uu,uu,,,,,u,,:,::::::@:::@+o++@@+O&+&O@*@#@@@@@@$@@@@@#@@@@@*O:#@:::-*O&-&-Oo@@--@o&*@--ooo .-&:@@:@:::@@@o&",
":::::u,:,,u,u,uuuu,uh,,,,#,,,,::,::::::::-@o-@:@#O-*#::*@O*@*O@*@$@@@:@$@+@+-@+@@#-@@@@@#--****&@O@@-----&--::&-&o&@--&---:::::-",
":::::,,,:u:u,,,,,u,,,,,,%,,#:::::::::-@@@@@::@@@--*O-O@*@@@@O#:::@:@:@@@:-::#:::--##::-#++----*-ooO@----:---&&--::@:::--::::::::",
"::::,::,u,,uu,,,,,,,,,,,,,#::::::-:--@-@:@@-o:@@O---O*&OO*@@:**#@$::@:$:-#:#:#:$$:$::::>:#@@---*:@o@-----&&&-::-@@::::::-&-:,:,:",
",,::::,,:,,,,,u,u,,,,,%,,,,,u::#------O-@@@o-ooo@@-O-O@@*O*OO#:::@@-::::#;%>>>>>>>>::#:$$>>#-:->:::@@o---:--:-&-@@:::::::uu&:::,",
":,:::::::,,,,u,,:u,,,,,,#,,,,#::::-:-@O*o@@::@:@+@@#@#@@@#::@@@@:::$:@@@::#:::$$%,,>>>#--$>>>>:::::::-----::---&::::-:-:-::-&---",
"@:::-u::::::#,,:,u,:,:,:##::,,u:::-:@---:@o@@:@:-#:@:@:#@#@:::::::::>>:>#@:>y,,%:>$%,,,,>#:#:>>>::::::--::-----u-::::-:-:::&,-::",
":u::::::,::,,,,,,::,,,::#,##:#:::,:--*O*o@@:::@:#@@#@#@:::::::@@::>>::,,,,>%>y%%yy%yy,,,%,,%>>$::u::-:::-:::,::-:----:-::::u:::u",
"::::,,,,:,:,:,u:,,,,,:,u:,,###:::::::-:-@@@oo@:@-@@-@:::@@:@::,#:::::$:,>%yyyyhyyyyhyhyhhh,h,,,>-:::::u:::::::::-:-@::::--::::-&",
"u::-:::u,:u:u,,uu,::,,::,:,,,#::::::::::::::@:@@::::O-O-@:$::$:::,,,>,>%y,,,y%hyhhhhhhzkhh%hyy%%uu,:-:,::u---::::::::@::u-::::u:",
"-:::u::::,:,:::,:uu,:,,,,,###,:#::::::::-:::::::@#-::::#::-#:::::,,:,%%,yyhhh%hhhkkkkkzkzkkhh%,yu:,:,:u::u:u::@-:-:::@::--::::::",
"::::-:u:,:,:,:,:,:u:u,,,:,:,,::,:,@@::::::::::-::@:::::,>:>>:,$::,,,%hhh%hyhhzzzkzzCzmCzzkzkhh,,::,,,-:::--::,:::-:@::::::::::::",
":::u:::::,,::,::u:,,,:,,,,,,#,,$:,,,::::::::::::::-O:::::,:,::,:,,yyh%hhhhhzkkzzCAzzCzAzzCz%h,hyu,:,:u::::---&-@:::::::::::-::::",
":--:::,::-::,,:,:,,,,,,,,,,,,$,,,:,,,:,::,:::::$:::::>::::>>,,,,,,%,yhhhzhzhzzzzzzAzmzCzzkhhh%,>:,,,,,:::::---:::::::::::::-::::",
":u:u,::u:u:::,:,,::uu,u,,,,,,%,,,,:,,,,:,::,::::,:,,,::#>,,,::,,,yyhhyhhhzzzzzzCCmzzkzzzzkky%%>,,@@:::::----::-&&@@:::::@:@:::::",
"::::::::uu,u,:,,,,u,,,,,,,u,,uu,,,,,,,,,,,:::::,::::>,,,,>%:,,,,yyyyhhhhhhzzzzzzzzzCCkhhhhyhy%,>:::@@&-:::--&&-:-:@OO---::::---:",
":::uu:u::::,,,uuu,,,uuj,hu,,u,,,,,,,,,:,::,:,,:::,:::::>,,,,,,,,,,yhhhhhhzhhzzzzzzzzkkkh%yy%,,:$:::::::&-&:::-&--:::@::@::-:-:::",
"-:::@::u,,,,,,uuhhh,uuuuuuh,h,,h%,,,,:>,>>$:#:::,::,,,,,,,yy%yyyhh%hhhhhhhhhhhChhjjjjjjuuu,::::@@:@@@@::::@:@:::::-:::-::-:::::O",
"u:::,::::,,huu,huuujjjjujjhhh,h,yyyyh,,,,,,,,,,,,,,,,,,,y,hhhhhhhhhhhhhhhhhhhh,hh,hu,,:,::::::::@@o@@@@@::@@@@:@@@-:-:-::-::@:::",
"-:,u#,u,,hhyhhjjjjjjljjjjhhzhhh,yyy,,h,,,,,,yy,,,yhjhhzhkkzkzhzzhhhhhhhhhhhhh%,u%,,:,#::@:::@@@:@@@@@@@@@oo@@@@@@-&&&::::@::::::",
"::::,uuuyhhhzzCxxxxZxlxxzzjjzhhjhhhy,,,h,,hhyhkkzzzzzzCzCzzzxzzzCChhChhhhhhh%hu,,,,:##:::@@:@@:@:@@:@&@@o@:@ooooo@&:-&&&o:@::::,",
"#,,%,,,jhzzzzzxxZZZZMxxxxxxxCjhzhhhhhkhhjhjzzzzSZmxFSSFAAASZZzZzCCjhhhhh%%,,,,,,##,#::oOO@:::@@@@:@@@@@oooo@@oo@o::oo:---:--::::",
",,,,uuhuzzxzZxSSZZSZZZZMxxxxxCzCxzzhzzzzxCxZZFDFDGGDGGGGGFSASZZxjjzzhhh%h%%,::::#,#@:oo&&ooo@@@@@o@@@@@@:@@oOo@oo&O@o:--:::,,:,,",
",ujhhhhjCCSCSSSFFSSZSMMMxxxxxxCCCZCCzZAACFZFFDDB'~~~~~'[[GGGFAZxCzhhhhhh%,,,:,,:::#::::OooooO@O@@&@o@o&@@o@o@ooooo:@::O::--:,:,,",
",u,ChjCjCSSSSFSSZSMVVMMvMMZZZZZxASSSSSGAFFFFHV~)~((____'][GGFFFCzChCj,,u,,,:,:::::O:O:::::O&&&@:::@@@@@@@@@@@@oooo..&@::::::,,,,",
"hhhhjxZZZFFFSSDDBBMBvVMvMMMSSSSSFFFFFFGGDDDBB~/)_(((((_)'{'GGSCZChjhh,%,,,:,#:::::@@:O:o:O:@@@@@O:@::@@@@@@@@@:@Oooo@:@O:::,:,u,",
"jhhjZZSSFFFFDDBBVBVVVvBBSVVSSSFJFFFGGGG[DD'D)))//(/((((__'[GGGCzjhh,,,#,::,:,:::#:::@:::@:@@&@O@:O@@@@:O:@@@@@@:::::oO@#:u:,uuuu",
"jjCCZSSSFFFVB)VVBnnnnVBBVSHFFFJFGGGGGGNNDDH))~__(/(_(^_^^[[GGZCzh,,,,,,,::::@:::::::::@o&@@@@:@O&@@:@:@@&@@@@::@::::::#:::,,,uuu",
"jCCCSFJJJHSHBV~VVVVBnBBVVSVSHFGJGGGGGF[GD~~D~)))_^)___~''[GGZZCzjhh,,:,#,#,::::#@@@@O@:::@@@@o&&o@@@@:::::@@@@O:@@,:::,:,,,uujjj",
"xxSFJJJJHVVH)VB)//VnnBVBMNDSFFGGFGGGGGFD''')HV)H'~'''GDGGGFSZxzhhhu,,,,:,,:,:::::::::::o@@@@@:@::@o@@:O@::::::::::::::,,,,,,jhhC",
"ZZFFFJHHHHV)V))/VVVVBVBBDDDDDFFFFFGFGDGDDFDDJFJHG'DD[GFFSSCCzzhh,,,,:,::::::,,:::::Oo:::::::::@@@@@:@@:::@:@@::,::::::,,,hhjjjjC",
"ZZFFJJJHHV)H)~/BV/VVVMSBSSSSFSFFFFFFGFFFFFFFFFZZFFFFFFASCzzzkhh%,,,:::,:::::::::::::::oo&@@&O::::@@@:@:::::,::::,:,,%%,,hhjjxjCC",
"ZFFFFJJHHHV)VVBVBBBnVMBMSNSSASSCCACAzAAASASSZZZCSmxZxzzkzkhyy,,,,,,:,,::::,:::::::::::::@@@@:OOO@::::::::::::::,,,uuhhhh,hujCCCC",
"FFGGG{}JHHHHDBVVBBBMSSMZZMCxxxzzChCCzjCzjCjzxxjxjxjujuuuu,,,,,,,:#:::::::::,:,:,#,#:::##:O@@###:####,,#%,$$$,,,::,,,jjjjjCxxxxxZ",
"FFGGGGGGHHHHHDSSDSSSSZZMxxxxzhzhjhh,%h,hh%h,,,,u,,,,%,,,,,:,:::::,,,,::::,:::::,,##,::##,:#:###,,,,%,,,%,h,,,,u,jhjjjjjxjjZZZFFF",
"SFFGGGGGGGFFSFSFSSMSZzlzlzjjhyy,,hh,h%h,,,%,$,,,%,,,:$::#:::::#:,,:,,:::,:,,,,:,,,,,,,,,,,,,,,,,,uhhhhhhjCjCCjjCCjCCZZZZZZZZZFZF",
"FFFFFGGGGFJFFFJSSSZSZZzzljjjhhhhu,,%,,%,,,,,,,:::$:::,,:::,::,,::::,,,,,:,,:::,,,,,,,u,u,,,uu,,,u,,hhjhhjjjCjCxxCxxCZZZFZZFZFZFF",
"FGGGGGGGFJDFJSSSSSSZxZxxjCzjjhhh%uhh,,,,,,,$$$:,$:,:@::::#:,,,#,#,:,:,:,:,,,,,$,,,#,,,,,u,,,,,,uhhuhhhhhhjCjxxxxjCCZZZZZSSFFFFFF",
"GGGGGG}GFFDDHSJSSSSZZxxzCCjhjzjhhhu%hhhh,,,,,,,$,::::,::,:::::::,:,#,:,$,,:,,,,,,,,,,,,,,,,,,,,,,,,hhhhhhCChxjjxCjjCZZZZZSFFZFFF",
"GGGG[HDDJDHDSHHSFSSSMZxxjhjjhjh,uuh,,hh,h,hh,,,,:,,:::::::::,::,:::::,$::,:,:,,,,,,##,,,,,,u,u,,,hh,hhhjhCjCjxjxxjCxjxZZSFFFFFFF",
"G}G[G}{HDDHDDDHSHSSMSZZxCCCzzjzhhj,h,,,,,h,,u,,,,,,,,,:,,::::::#,,,,,$,,,,,:,$,:,:,,,,,,,,,,,uu,hhuhhhhhhhhjxxxjjCxCxZZZFFFFFFFJ",
"GGG}[J{'{VHHVVHVHSSSMSSxCjjjCjzjhzhhhhh,yyyyyyy>,,,,>>>::,:,:,#,:,:,:u:,:,,,,,:,:,,,,,,,,h,,%h,h,%,hhuhhjjxjxxZZZZxZZFSFFFFJFFJF",
"[}G{{''H{{HVVHVMVVSVSxSxCCCxjhzhjzhhhyhhhyyuyy,y,,,>>,,,::::::,,,:,:::,,,,:,,,:,uuu:,,,,,,,u,u,,hhhhh%,hjxxxxxZZZZZFZSZFFFFFFJFJ",
"}'}'{'))VV{VHVVHSVSSSxxSxxxjCjhzhjhhhhy,,,,>>>,y,u,,,,>,,,,:,#:#,::,u:,:::,:,,,:::,,u,u,,,,,h,uu,uhhjjjjjjjjxxjZZZFZZFFZFFFJGJJJ",
"[}{{){{))){{VHSVMSMHMSSxxZxCjCChzhhjhhhhhuywu>y>,:,,,,,>:,,,,,,,,,u:,,:,,,,,,,,,u:u,,uu,,,,,uuujuhuhCjjjxxSxxxZZZZZZZFFFFFFF}GJJ",
"}}{{{~){{{VVHVVHVVMSMSSxxxxxCCjCjzhzkkkjhyhuyyyw,uu,,>>>:::::::,,,,,,,,,:u,,,u,u,,,:u,,ujjuuuuujjjjjujjxjSxxSxZZZFSFFFFJGGGJGG}[",
"{{{{{))))))VVVVVVSSVHMMSZZZCCjzjzjzhjjkhhhhyyyyyu,,>,,>u,,,,,,:::,,,,,,,u:u,u,,u,uuuuujujuuujjjjjjxjxjZxxxxxxSSSFFFFFFJJJJJ}}}}}",
"{{{{{{)_))){VHVVVHHMFxSZZZZjxCCjzzjhkhhhhhhhyuuue,,,,,,,u,,,,,,,,u,,uu,,uuuu:u,uuuuuu,,ujjjjjjjjjxxxxxxxxxZSSHFFFFFJFJJJJJ}}}}{{",
"{{{__){{)){V{VHVSVHSSSSZZZZZCjCCzzxzjkhjihhyhhuuu,u>,,,,:,,,,,,,,:,,:uuu,uuuuuuuuujuuuhuhhjjjjxjxjjxxxxZSZSSSSFFFFFFJFGGJJ}}}}}}"
};
