/* XPM */
static char *Texture_128x128_10_4[] = {
/* columns rows colors chars-per-pixel */
"128 128 92 1 ",
"  c #BF0FA4",
". c #BE11A2",
"X c #BE1BA3",
"o c #BD21A3",
"O c #C10FA6",
"+ c #C214A6",
"@ c #C917A7",
"# c #C31CA6",
"$ c #CB1DA6",
"% c #C616A9",
"& c #CB15AB",
"* c #C61CA9",
"= c #CC1CAB",
"- c #D11EA7",
"; c #D117AF",
": c #D31DAC",
"> c #D91EAE",
", c #D416B2",
"< c #D917B6",
"1 c #D51CB1",
"2 c #DC1DB4",
"3 c #DE17B9",
"4 c #DE1BB9",
"5 c #E11EB6",
"6 c #E217BD",
"7 c #E41CBC",
"8 c #EA1FBE",
"9 c #C223A6",
"0 c #CB24A6",
"q c #C22BA6",
"w c #CD2AA6",
"e c #C523A8",
"r c #CB23AB",
"t c #C529A8",
"y c #CC2BA9",
"u c #D325A6",
"i c #D926A7",
"p c #D42CA6",
"a c #DA2DA6",
"s c #D422AC",
"d c #DB24AC",
"f c #D32DAA",
"g c #DB2CAB",
"h c #C730A6",
"j c #CD31A6",
"k c #CF30A8",
"l c #D532A6",
"z c #DB33A6",
"x c #DF38A7",
"c c #D630AA",
"v c #DD31AA",
"b c #CF28B0",
"n c #D522B1",
"m c #DD22B2",
"M c #D128B1",
"N c #DD2AB1",
"B c #DD23B9",
"V c #E12FA7",
"C c #E126AE",
"Z c #E32CAB",
"A c #E92EAE",
"S c #E335A7",
"D c #E936A7",
"F c #E438A7",
"G c #EB39A7",
"H c #E434A9",
"J c #EB35AB",
"K c #E638A8",
"L c #ED39A9",
"P c #F03CA7",
"I c #F136AE",
"U c #F33BAC",
"Y c #F83DAF",
"T c #E323B3",
"R c #E926B6",
"E c #E32BB3",
"W c #EC2BB4",
"Q c #E323B9",
"! c #ED23BB",
"~ c #E629B8",
"^ c #EF29B8",
"/ c #F12DB6",
"( c #F027BA",
") c #F029B9",
"_ c #E530B0",
"` c #EE31B1",
"' c #F334B2",
"] c #F639B1",
"[ c #F93CB1",
"{ c #E71CC1",
"} c #EB1EC1",
"| c #EE20C0",
/* pixels */
"SxxxzxxxxxFFFFDSSFFSFFFFFFFFFFFSxzzzzlzllpjpjllalzzazazzazzazlpzzzzazzzxxxxFxFxxxxxxxxxxhxhxxxxxxxxYxxxYGGFGFGFGDGGGPPFPFFGFFFFx",
"xxxxxxxzxSSFFFSDGSFSFzzFFFFzSzzSxxxzlzzlwjplpllzallzlzazaalazazzpzzzzzFFFxFxFxxxxxkxxkxxxxxxxkkxxxxxxYPxGGGGFGGFGGGGFPFFSPFFFxxx",
"xxxzlxxxxxSSFFSSFSSFSFFFzzFFFFzzzzzxzzpjpjjplplllazazzzlzaalalalzaazxxxFxFSxxFxxxxxxxhxxhxhxxxxkxxxxPxxPFGGGGGFGGGGGFPFFFFFFxxxx",
"lxlzxxxxSxxFFSSFSSSSFzzzzFzFzzFzxlzlljjpjjpljppzzllzplazzlzazzzzzaFxFxxxxxzxxzzzxxhxkxxhxxkxkxxxxxxYxxPxGFGGFGGFGGGGPFFFFFFxzxxx",
"xxlxllxxzxFFSFSSSSSSSSSzFzzzzFzzlzlzckkkpjlpjljalalazpzzlzazVzzlzxFxxxxlxxxlzzllhxxhkhhhkxhxxxxxxxxFPUxPFDGDFGFGGGFGGFFFxxxxxxxl",
"jjxxxlxlxxzxFSzzSSSVSazFzzzzzzzllxlljhkkplpjpplplzzzzzpzzzzzlzzlxxzxxzxxxlxxzlxlhhhhhhhhxhxxxkxxxFFFxxPxDDFFFFGGFGGGFFFFxxxxxlxl",
"hohlxlxxxzxSzSSVSSzSaSazzzzzllllccckjhkkppjjllplzazllzzllzlzxzxxxxxlzzxxllxlljlhqqqhhhqhhkxkxxxxKxFFFxxxFFDFDGGFGFFGFFxxxxxxxllj",
"hhohllllxzzzSFSSzzSzSaSazzlllllljchkkhkkwjpppjpllllazalzzzxxlxxxlxzzzzllllllhhhhqqqqhhqqhhkxkxxxxKFFFPxPDFFFFFFDFFFFxxxxxzxlljhh",
"oohhhxxxlxxlxxSSSzSaSaazzzzpllpjkhhhbohMjkkkkkkkpzlzlxxxzlxlxlxlxlxlllllljhqqqqqqqqqoqqhhjzlzzxSxxKKKKKKKJHKFFFFFFFxxFxxzzllhqqq",
"hhqqhxllxxlxzSSzzSaSaSavzaaalppjhhhhohhokjjkkkkklzzllxlllxxlxllljxjxlljhhhqqqqqqqqqqqqqqolzlzzxzxKxKKKHKKKKKHKFDFSFxxlxlzllhhhqq",
"qqqqhjjlxxlxSzVVVzSaazvaaappppjjohobhhqbtjkkkkhbjllllllllllllllllllhhohohqqqqqqqqqqqqqqqhllxlxzxxxKxHKKKJKJKKJKKSFxzzxzlllhoqqqq",
"qqqqojxxllxxzzzzSazaaVggapappppooboohhqqqqhhhjbqllllllllllllljjhhhohohqqqqqqqoqqqqqqqqqqhlllzzxSx_KKHKHKHKHJKKHHFzzxzlzzjhohqqqq",
"oqqqqhxlllzzzzzzzazzaaaaffffpp0oeeoetttoqqqqqqqqhhhhhhjhhhhhqqhqhhqqq9qoqoqhqqqohqqqhohokcxczzSzx_HHKHKHKHKJJHK_Sxzlzlljoqqqqqqq",
"qqqqhhjxxlzzzxzzazazafaagiisu009eeboeoee9qotqqqqhohqqqqqqhqqoqohoooqoq9qqqooooqqhoqqohohcccxzzSxxxxHHHHHHHJKKHKHFSzzzjhqqqqqoqqo",
"oqoqohjjlzzzzzzzzazaaaafgiifue99eX*e*ooeeotteqqqqhhqqqqqqqqqhqqohoohoqoqoooooqoqohhhohhhcxxvaSSV__xHHHHHKHHKHKHvHvVzlhoqqqqqoqoq",
"qqhqhhjxlllzzzlzaaaaaafiiwisee#$e******e**eoeoeooooqowoqoqoooooqoooo$9999ohooooqhooohohkkkvvSSSDKK_xxHH_HHHH_vH_vHzzhqqqoqoqqoqo",
"9qqqqjlllllzzzzllalaappifsrre**e**%%%*****XXe*eeeoo9eeeoeoooeoX*ooeo*eXe9#oeoeooqqohookcpllzSSSV_HH_HHHHHH_HHHvvvvvbbooooooooooo",
"qoqqqwllazlllalazppppppffib==e****%*%%%*****XXX*X*e*Xo**o***XX*XtoXXXXXXX9eoeototqohhhkcllazzzSVHH_H_H_HHvHvvvvvvfbyboboboobboob",
"9oqqqwlplllalallpzlppuuffser===***%%%%%%%%***X*X*X*X*%*X***X*X%XoXXXX&*Xo#9#ototootohkkcallzlzzS___JH_HHH_v_v_NvcytbbbbooboXoooo",
"99oqqljllallalallpppppppseree*=*&%%%%%%%%%%%O*%%X%X%%X%X* X * X%=XX&XXXe##o9eotoqqohhkkllllaazzzvHJ____HHvvvvvckytbtb*b&oooXeoob",
"oqoqollpplplplppppjpppuueeb*=*=*&%%%%%&&%%+%X%+X%# %*% *  *X%X X%X%X*X*X9X9o99oqqqqtkklcaplalazlagHJ____Nv_vNcMybyebe=bbb%X*XeXb",
"999qqppllalplpplplpwpwpwbb**==&&%&%&&%% *O%%%%%%%+%X ** X%% X%%XX%X*X*Xe#oq9qoqqqqtllkllllllzzpzvvvg______vNMbybtbb==b&b&**XeXXo",
"eot9tplplppaplppppwpwpw9ee*bb*=&&%&%%%&&%%%%%*%X#%++* *  * X X++%X*X*X*o999oqoqqqtlwwlccplazpalaalav_N___ENvbbb=brrb=b&&b,%XX*oe",
"otttyapppwlpplplpwjpwwq9=bb*&*=&&%&%%&X&%%%%%OO*%+%+ * %X  *% #XX%X*o*oe999qt9qowwwppppjppaplplllapacvc_NENbbbeber===&b&=&bX*o*o",
"eoteMgggffappppwwluwyttrobb===&&&& &X,X&%%%%*+%% % #%+%++++#+X#+X*XeXeotootoqqqwwwlwppjppappppppppppplaaBMMMMMbbbbb&=&;&,=bXX*oe",
"otteMENEgvafpppwpwwwttetbee===,&&&&== &&@%**%%*+%#%#X+ ##+#X##X#%XoXtoeotoot9q0wwppppppppplpppppppplwpifbBMMBM,b,&,&;;&;,=,&*X*o",
"eotefNN__Eggfafppwwttter===&bXXb&b=&=&&&*@%%**#*##%%+#*X#++#XX##*ooeottoottoqwwwwpwpjjpjpppppppppppppwttoMbBMM<b,&b,,&&b&,=b=ooe",
"oteedfNE~~~Ngggipu0e0eereb=b&,&,=&=&=X&X********%##X##*#X#####o9oeoootottottwwwppwwppupuppppwuppwwwwwtoqooXbM<,<M,&,;,;;b,b,M*eo",
"o9t0fsgN~~EENNNfpyryrrrr*bb&b,*b;==*=**=@*******#**X#####9#Xo#o9oeboooqqohwwwwwwwpwppwwuwpppwpppwwww9q99boo X&&<<<,,,,;;;;,,B&Xo",
"9990ufdNN~~~~~NNMrsrrer=b=;b,**,=;=====*=e*re*e*e#e*#9#9#9999999ooooooootywwp0pwwwuwwppwwwwuw0wpw0qo9o9oXXXX   & ,,,,,,;b;bbbbeo",
"99q0yiifN~~~~~NMMnMrrnbr;=&&&=b&=b==r=*r*eee*e9*e#*9o*eX#o9X9oo9bobobohywwwwwuiupipwwwppuwuwwwww99999o99X*XX       ,<,,,,,,M1Mbo",
"qoew0yindNE~~BBNnMnnnb;;;bb,M=,b==ne===rr=ereeeeeeeeeeot99999999oooooMbhtw0u0ppuiigiiw0wwwwwuwooqo9o99#XXX   %       *,,11,MMMBo",
"999ywuuigNNQBBBBMBnM1n=1::1r=n==n==r=rrb=eeeeeeeee9eotoeoooe9999oq90009ww00w0uwssdNENNis00y0t9999ooo$##X#X +. OOOOOO+++&;11nnnne",
"#ot00u0usnNBBNMBBnn1n1n11::1:1n==nn=r==eeerereeeeeeeoeeteetooq9900w0ww0000w0000uufdmTQ~Ngy0999oo99#ooX#+@.+  .OOOOOO.+++#*nnMnne",
"99e0u00uidnnMBBBB4nn1111:1n>>sn==nr==r=rbb*rboee9etetotooteo9twt0w0q00w00000w0000wisnNQ~Qmne999#X##$X+X+++++ .OOO OO++X+X#Xerrre",
"#9t0000uyrrnnBBBBB441411n1:nn1ssnn1bnrrbererebteetteeetetttb0w90q0ww9w000w0w00t000wssnnnBBBms$#$$XXX+@.++.+   .OO +@++++%XeX9999",
"o99000000rrn1B2BB44421211nn1s1sn=nssnrsyyrrrrtett0e0t0t0tr0tw09w0q0w9w0w0w90erty00000=rnB4B452:=+@.@+++X#+++++ OO+O+++++X*X9#99o",
"999#9999$r=rnn144242221nm11nnn1nrnnnnsnrssrybery0ytywt0t0yt09ww0w0q0w0w9t09wtre00e990#$rnnn4676<:.X..+++.+.+  .OOOO++++X*X*#9Xoe",
"999999$$00-sr1122444222112nnnnnrnsnrsrnssysyryry0r00y00ytyetwtww9w009wwtw90wteeoq#9#e0=e*n1456663, ....+O@+ +  ++O+O@@@@###9#9e#",
"#9e909900$rr=n14444444221nn1n>s1=nrnnrrrrrrysyrryrt000e0e0t09099w90qt0909t9ooboeX999#e#*@==;<33666;O ..  + +..OOO@;@;@@$*9#9*9#9",
"o$$9$909#0$=s:112<44422Bn1nnnnnnsn1rnrrrbrrrrrr000000ee0e0et009e999999q9oeoeoteo999##*#*$@@-,<<3666&OOO  ... +OO &,&;;====e$#9$9",
"999999$$$00--:11<22447422m22mnnsnrnnrnbnrrrreeeeeeeeeeee9ee99999q9999999eotoeooe9#9#9#$#X@@@-;<<6666OOO+ ++ O++@;,,<1,=;===$9$9$",
"$09$9$$90$$$$::11224242B4mnn>ns1snsnnrr=srre=eree=e#9e999#o99ooqoo9o9o99oeooooeo99#9$##*@@@@@;;,<566,OOOOOO+OOO&,<<<4111=:==#$$9",
"9$$9$99$$00$-:;>122245724m2m1smn1rnnr1nsrn=rerr*e#eee##9#9#99##99$99999oeoeeoeo*#X####**##$@@--;;<567;OO++OOOO,,<334344111n=$0$$",
"$0$0$0$90$$--:::12222QQ2Bmm2m1ssssnsnrsrrsr==e=*e$*ee##e#9#9X$XoXeoo#9X9XeXXX9#9###X##$#$X$$$@@-;><566OOO++O+&,,3344{4B42m1nsr=0",
"0$0$0$0$$$0$$--:>1d2242424Bm2mn1n1s1=n1rs==re=e=#$#**######+####*X**X#X#eXXe#X###9#$##$####$@-@--;><55< +++O+;,<33{{{|{{4421>:s-",
"u$$0$00$0$-$$--:->m2m22Q4B2m2n1m2nn>s:s:===$==$#$#*#*#######X+XXXX%XX%##*X#9#X##9#e##$9$$$$$$$-$--;,<56;++++@;;>36{{{{|{|B2m2n>-",
"--u$0-$0$-$$---->s1m2m2QmT4mmmmsss1ss:::-rr=#$$=##$$@###+++X#X$+X*XX%X#XX%XX##9#####99##9$X$$$o--;->><55@O++O;;,3{{{{{{|{472m2s:",
">----$0-$$0--0---u>d2mmmBT2Qm2m2m>s>ss=:=====$$$**@$#@X#$XXX.$.@%%XX+++##XX%X*Xeo$#$$##9$$$99$$$$---;>>62+++@@;,<{{{}}}}{{77B22d",
">>u---u$-0-0-uu-u-s>d2m2mQmmmmsmms1s>:s:s=-==$=@$*####@#$.$.$.X+X  %+XX+#+##%X###$o999$0909$0$$$$$--->>C2:X+@@:;14{{}}}}{{Q77m22",
"d>>----$---0-uuu->s>dmmTmmTNmmmm2ms>ss:s::-=$=$$*$#$$+##$XX$..XX%XX%+#X#X#X#####$o9$$$990$0$$0$0$---->>>25*++#&:14{{}}}}}}{}7Tm2",
"22s>>--u--u$00u-dusd2mmmTmmmmmmmdsm>n:s::-===$$$@@#@X@##.$XXX$$.  %X++++#+#+*#e#$9$$900$99009$0$$------>25>+#@$&,46B}}|}}}}}Q77T",
"5C>>iu-u-uuuu0uuusdssmmmmmTTmmmmmdmsss:s-=s-$==$$$$#$$+XX$..X+XX%X+++#+#####****$$9o$-$$0$$09$00$0-0u-->>>5:+#$==47778}}|}}8}7Q5",
"555>>>i--uu-uuuuuuudddmdmTmmTTdmdmsmd>ssss=0=$0$#$#$$XX$$X$XX$X$X#+X+X#+@@@@*$$@9$$$0o099$0000$0000-$-u-i>mT##$$=122788}||||88!7",
"55C>>i>u-u-uuuuuiuissddmTmmEmmmdmsdsdss:s$s-r$=$$$X$$X$X$X$X$X+X#++#+#@@#@@$@$$$X-0$$9-$-0090$00000u$u-uu>>C>+*$=>2277}}}|}88887",
"!555C>>iuuuuuuuuuussddddmdmmTmmNmNmdnsssss=-r$$0$$-X$$X$X$XX$XX$###+###@$@@-$$$@-$$$$-$-0$$00000000-uuuu-dd>T$*$=>>25788}||8888!",
"85T5TdddiiuupuuuuuiidsidmTmmmdTmdmdsddsss-s==0$=$#$###X$XX$X###XX$@XO@@@-;-;---;-@-@--@-$0u$000000-00uuu-i>>C>*$---5587!}||||888",
"!!!CTddd>uiuiiuuiuu>sddddmmCEmmdmdNdnssssr=us$$$$$$9$#$XX$$X#X#XXXX+@@-@;->;;;;----------0$00u000up0u0u0uuiiCC-$$->>55588}||||8!",
"5!5RTTCCdiiuuuiuuiuuidsddddTTdmNmddsddsssss0r-r$$$$$$$##$XX$#XX#.@X@@@&;;;,,;,<>;>>-----u$$0000u00u0u00uuuuiiCC$$-->>55!8(8(||8(",
"!!!TTTCCdiiiuupuuuiisidddmdmmmCddmdmdisss-s-$s$$9$$#@##*X@XX#++#.X+@.@-@;-;>>><>>;>;-----uu$uu00u00u0wuuuuui>iC:@--->C558888(|(8",
"(!RRRTCCCiiiiipuuuuiiididmCmTddmmddddsssss-=r$$$$$***#**+XX++X++@++XX@@-;;><<>5<>>,>>>-i-u-uu$u0w00wuu0uuuuuiddC0u-->CC588!8||(|",
"!!!RRRTZCCdiiiiiiiuuiiiidddmdmTmdmmddddssssu$sr$$$$*#*##+$@X#++++XX@@@@-->,>2<<55<5>>>>>--u--uu$uuuuuwwuuupuiiiCu$-u-C5TT8!!8(|(",
"(!!!RRTTCCiiiiuipiiuuiigdddCCmddNmdNdsdssrs=s=0=$0#$$###XXXX#+XX.###@@@-;;,<<555<555<>>>>--iuuuuu00uuwuupuuiiiiCdu0u->C55R!!8|((",
"(!(RRRECCCZiiaiauuipiiusgddddNEddddgnfdsusur0r=0e##e##$#$$#$#####X#+.@@@@>;>><5<55555>>>>ii--uuuuuuwuuuwuuuuuiidCi$ui>CC5R!((((|",
"(!!(RRWTCZZgiiiiuuuauiiididNdNNdddfddNfssssrr=rre=0#e##99#9#X######X###@$-;>><555556555>>>>>-i----uuuuupuuppuiiiaV-uuu>CT5R8R!((",
"((/RRWRECCCggiaiaaiuuiiiigdddddmNNNddfndsfsssyr0ee0eeee#99#X99XX######@$$$-;>>,555535555CCC>iiiiiiuuuuuwupuupuiiViiuuuiCCTRR(((!",
"()!/WRRWWZCCZiViauuiiaugdgiddgmgddgNMffsfssyyyyr00eeee999*#9o9#9o#X####$$$--;>>5>555555T5CC>i>ii-iuupuuupuupuiiiiCVuuuidCTRR^R!^",
"(((/!/WRWTZCViiaiaauauaugsdggEgggNNdMdnffffysrrryet0t9e9to99999999X99##$$$@->,>>5555T55555>CC>>iiiuuuuupupuuipiiiiVipuiiCCRRR!^^",
")))^^WWRZACZiZiiiiiaauuiuggidddNNdfNfMffsffybyyyyttrtttettotqo999o99$9#9o$$$-->>5>T55R555C5>CC>iiiuuuupupuuipuiiiVZV-iiiCCCAR^^^",
")))))WWWWEZCZdiaaaaiuaaaiadgfNgNgNMdNfgNyMfbyyyy0tyyy0ttt9te0999qe99999$u$$u@->>>>5555555TTCC>CiiiiipppuuppppippiiZZiuiiiCRRRWR^",
"))/)W)WWRZWZZgiZiapiuaauiigggdgNfNgNcNfNMyfyyfyfyyyywtwtttet9qt9e999990$X-$0--->>C>555TTTT5CTCCCiiiiiuipauipiuaiiiVVauiiiCZRR^W)",
"/)////WWWWWZZZVaaaiaaauaaasggggfNgNfMcNccNfffffyufyyywwt0yytw9wtte09099090$-u--->>>TTRTTT>>>TC5CCiaiiiuiuupupauiiaVVVuiiiVCCRWWW",
"W)///)/WWAAAVZgiaaaaaaaiifaggggNgNcNcvNcMcccfyyfypyyywywwytwtwwt0q900q09000$0uu-->C>CCT5-###$sCCCCiiiiiaiipppauaaiVVVappVCZCAWRW",
"//////W/WWEACZZZaaaaiiaaafaggfgNNvNcNcccvccNcccpcpcypypwwjwwwwtwwwwqw9w0090000-uu>>C>TTT*#0#0$-dCiZiiiiiiipiipapaiiVZapiiiCCARWW",
"W/////'/W`WEAZHgaiaaaaaagiagggMgfvNNNcNvMvccNfcfyyfpypywwwwwwwwwww0w0wq0w90000uuu->iCCCT#0$0$00uZCZiiiiaipippipiiaVVVAiiaVVVZWW/",
"//////'W`WAJZZgVVaaaiapaaafagggvvNvvvNvvvcNcckffcppypypjwpwwwwwwwwwwqw0w0ww0000$u-i>C>TT$$$$0000-CCZVViiiipipaipaiVVVVapaiVCZWAW",
"/'//'/'/W`WEAAAVVVaaaaapaafagggvNvvvEvNccvcccfcpcypyyjpypwwwwwwwwwwwwwww0ww0ww0uuuuiiCCCr$000u00uuVZZZCiaaiapiaaaiaVVDViiiVCZAWW",
"W/'////'````AAVVVaValpaafaafvgvNvN_vvvvvcNMvcfkfpcyppyywwjwwwwwwwwwwwwwwww0w0uu0uuui>dCCs0000uuuuuuVZVVVaiaiiapipizVVDDiiViVZWAW",
"/'/'/'''``W`AZZVVaVzaaaaapfvgvHgv__N_vNvvcccMccfypcwypwwwwwwwwwwwpwwwwwwwwwww0w0uuuiiiCCd0u00uwuup0aZZVVaiiapaiaiaaVVVDaViVVZAA`",
"`/'/'/'W```_AJVZVZazzapzavagvagvvvvvvNvvvcfcfcyfkyywywwywwwwwjwwwjjwwwpwwwwwuwwuuuuiiiddC0uuuuuuuupuZVZVSVaaaapaaazVVVVViVVVZAA`",
"`''///['//`AJAAHgHazaaazaagvvgvgN_v_vvNcNccckMkkyyyytwwwwwwwwwwwwpwwwwpwwwppwwwuwuuuiiiVZuu0uuuaiuupaZDZVVziauaaaaazVVDZiaVVZAAJ",
"'W''[//''''WWJJVZHVgazazazzagHvHxvvv_vcvcccMMkbkyywyywtwtwwtwwwwwwppjppwwpwwuwwppupupiiiZiuuuuuupuppuiAVZVVSvaaaaazVVDVDzaaVVAAA",
"J/''''/['''J``AZZVVzSzaaazgzvggHvvv_vvvvNcckkMhbyywttwttwtwywwwwwpwjpwwpjwjwwwpwwupuiiiVZZpiuauaiipiapHZSVVVSaiaaaVVSVVDVaaVDZAI",
"AI'//[''''''JJ_HHVHaaazaaaHaVvvgv_vvx_McccMkkhyy0yytttw0ttt0twwwwwwwwwpwpwpppwwuupupiiiVVV0uauauiaaipaaZDSVSaSHaazVzVVVDHaVVVDAA",
"I//]'''''''I``JHVZvHzaVzzvavgSvHv__vvcvccckkkyyhtyey0twtw0ttwwwwwpwwppwppwjwpwpwwppuiiiaZZVupiiaaaaiaaaSZVVVzVHaSaSVSVDVDzaaVDZ`",
"II'']''''''``JJ_JVHgSSgaSaHaavVvvvvvvNvMkcbybytbyyttt9t90t0w0wtwwwwpwjpwwpppppwpppupaaaVVVVuiiaaiaaaaiaaADDSVVaSVSzVVSVDDaVSVAA`",
"`I'']''[]'`I```JAHVSaSVzaSzvHvHvv_v_vvccMcbkkbyytwttt0t0t0ttwwwwwwwwwpwjwpppwppwpupppiiVVVVppiaiaVaaaaaaZVVVSSSzzzSSSSVVDiVVVVDA",
"I`I'']''']II`J`HHHHgHVzSSaaHvVgHvvvvNcccMkkyykyttt0ttttttt0t9ww0wwwpwwpppwpjwppwwpupapaVVVDpaaaaaaazVzaiVDDDVSVVSVVzaSSDDSVVDDAJ",
"II']]][]]']'I]_KKJHHHgVaVzSagHHvNxc__cMcckykbyyhyttettttt0t0wtw0wpwwpwppwwjppjppppppapazVVDaaaaVVVaVzaVzaJSVVSVSVSSzVSDVDVSVSVJJ",
"_III]]][]]''I_IJ_ZHgHHSzSSgHvvvvxx_ccvccMkkMyytbtyttt00ttt0ww0wwwwwpwppwpppppppppppppiizDVDaaaVaVaVVVaVaaJDDDSSVSaSVSSVDDJaVVDAJ",
"'I]]]||[]]]'III_HJHHSgSVaSHaHvvHNx_ccccccMkkkyktyttttt000t0t0wwwpwwppwpppppjpppppppppaiSDVDVaaVzVVVzVVzaaDADVDVSSzSSSVVDDJVSVDJI",
"JI][[[[[]]]]II]JJJJZVHSzSzzvSvvvNxc_c_Nckkcyyktbtytwtttwtwtw0wwwwwpwwpwwjpppjppppppppaaaVVDVzazzVVVVSVVVaVDVDVSSVSVSSSSDVJaSDVJJ",
"I]]'[[[][]]]'IIKJJHHHVSaVSHgvvHHxxvNvccccbkbyktyyyttwtw00w0wwwuwwpwpppppppppppjppplppazSVVVDaVVVVSVVVVVzaSDDDDSDSSVSVSDVDJVSVDDA",
"II]][[[[[]]]IIK'`JJHHSHSSazSvxvvvNxvvccccckkkbtkwywywtytwwywwwwpwupwpwpwpppjpjpppppapaazVDDDaVzSVVSSSSVSSzJDDVDVSSSSSSSDDJSSDDJJ",
"L]]]|[[[][]]]I]`JJJHHHHHSzSHvv_vxNxNvvccckkkkykywyywywwwyw0uuwuwpwppppppppppppjpppppaaaSVVDDVSVVDVDVDVSVSaADDVSSSSSSSSDDDDSVVDDJ",
"'L]][][[[]]]]IIIJJJJHSVSSHHax_vxvxvvvNcccccMkcykyypyywywwwpywpwpppppppppjppppppapppapaaxVDDDVzSVVDVDVSSSSVSJDDSSSSVSSVDVDDDVDDDI",
"L]Y][[[[[[[]]]]_Ux_KHHHvHzzHzHvHv_x_vccvcccckyccwkywppwypyppfuwpjpppppppppppppppplpllaaSVDDDSSSVDSDDVDVDSSSJJDDDSDVSSDSVLJSVDDDJ",
"L]I][][[[[[]]][xK]]KJKHHVHHSHVvvxvvvxvvcccccclcwcpcykyppypypwpppiappzpppaplplpllppapaaaSSVDJSVSSVDVDDDVDSVVPDDVDSSSSSSDDDJDSDDJI",
"II]Y[[[[[[[[]]x]]x_xKHKKHSHSHHHHx_vv_vvvcvcccccccylplwpyyppplpppapapppallplppppplplaaazSSDDDDVSDDDVDDVDDSSVPJDDSSSSDDSDSDDDDDDDP",
"IYY[[[[[[[[[]][]]U_UKHSHSHSgzvHvx_x_vvxcvvcccccvpcpcpcplpppafaaalaplaappapppplplpapaazzSSSDJDSVSDDDDDDDDDSSJDDDDDDSSSSSDDDJSDDJI",
"IYY[[[[[[[[[]]]]KIIK`x_KHHvHHHvH_x_xvxxvcxccvcclclcpcpppplalalalaaallaapllppppaplplaazzSSSDJDSSDDDDDDDDDDSSJPDDDSSSDSSDDDDLVDDJJ",
"IYY[[[[[[[[[U]UK]KKIKKHHSSSHHHvHxxx___vvvvxcvccclccaallccppfaaaazpzaaaazaplplplppalaaaSSDDDJLSDDDDPDDDDDDVSPJDDDDDSDSDSDDPJDDDIP",
"PY[[[[[[[[[[]]]]]IKKKHKHHSHHvHSSx__xx__vxxNvvccvavclaffzlalalavazaaaallalpaplplpplpaazSSSDDPLSFGDDJDDDDDDDDIJPDDSDSSDSDDDDJDDDPI",
"IY[[[[[[[[[]]]UUUxIK'HHKSHSHSHHH_Kxx_xxxxccxcxvlvlazlzlaavaalvaaazazazalaalaappppaalzaSVDDDPDFDGDPPJPDPDDDSPDDDDDSDFSDDDDPPDDDJP",
"YIYYYYY[[[[[[U]UIJLJJHJHHDDSSHHHK_x_x__vvxHzzzazlzcaazaavlavavzzzVSazaalplaalppzlapzaxSSDDDLLDDLDDPDDDPPDDDDPDDDDSSFFDDDDIJDDJPP",
"YYYYYYY[[[[[[U]ULIILKHHJSSHHSHHHx_K_xxxxSvvzzzzzazzzzzzzzazzzxxSxxzSazzazalplapzalzpaSSFDDGPLFDDPIIPIPDDDDDPJPDDDDDDFDDDDPPDDPPI",
"IYYYYYYY[YYYU]]UUI`LLJKKHSSHHHHHKKKxK_x_vxzzzzzzzzzazgzzzvazxxxSzFzzzaazzplaplppllaaaSSFDDLILDLGPDDPPDPDDDDIPDPDDDDSDDDGDPJDDPIU",
"UYYYYYYYYYYYYUU]ULLLKHKKHDHHHHHHx____xxxHzSzzzzzzzzvzzavazzSSFSxFSFzazzaalajlazpaalzzSSFDDLPDDLLDIPPIPDPDDDPDPDDDFFDFDDDDPDDDJPU",
"YYYYYYYYYYYUYUUUUKIKJKKKHKHKHKHKHKK_HHSvvvzzxzzzzvzvzzazSzxSFxxSzFFzzzalalaalplaaazaSSFFDGPPGGGGPPPDPIPDPDLPJPDDDDFFDDDGDPDDDJUU",
"UYYYYYYYYYYYYUUUUUKUJKJKKK_HHH_HKHKKvHSxxzzSzzzzzzzzzzSzzDSSFSKFFFSSSazazaalalaalzazSSFFDLLPGGGPDIPIPDDPDDJPPJDPDDDDDDGDPJPPPPPU",
"UYYYYYYYYYYYUYUUUUIKJJKKKKHKKHKKHHHHHHHvSzzvzzzzzzazzvzzSSKSxSSSFFSzVzzaalallaalalazSFFDLLLPGGGPPPPPPDPDPDPPJPDDDDDFDDDDJPDDPIUU",
"UYYYUUYYYYYPUUUUK]KUJJKKKKKHHKHHHHKHHHxSzzzxzzzzzzvzSaSxSxxxKxFxFzSVzzzllalalplaazzSSFDDKLPPGGGPPPDPPPPDDDPPPDDDGDDDDDDPIPPDDPUU",
"YPYPYYUYUUUUUUUU]UKU_LKKKKHKHHKKDHHHSSHvxzzzzzzzzzvazzSxFxSxSxxFFFxzazaalaalpalaazzSSFGGGLPPGGGPGPLPPPGGGDPPPGGDFFDGGDGDPPDPPPUU",
"PYYYUUUYUUUUUULUUKUKLJKKKKKHJKKKDSHSHSxvzzzzzzzlzlzzzxxSxSxFSFSSFzSzzzzzlalaalalzvzSFKDGGGPLPGPGPPGPGGPGGLIPPGGDDGDFDGGPPPGDLPUP",
"YYPYPPUPUUUUUUUULUKUKKJKJHKJJK_KFSVFxKlxxzzzzlzzzzzzxxxvxxSxxFSxxSzzzazalaalallzzaxxDDDGGPLGPFGPGPGPPGGPGPPLLLGLGDDGGDPDPPDDPUPY",
"PPYPYPPUUPUULUGULLG_KUKKKHHKHJKKDFFFHvSxzzzzzlpzzzzzxxxxxxxSxxxSSSazzazlazlaaazazvSKFFDGPGPGGGGGGGPGPGGGDPPLLLGDDDFGDDDLILLLPPPU",
"YPYPPPPPPPPPPULU]KLKLKKKKKHJHJHHSSSSSxxzzzzzlzlzlazzxxxxxxSxSSxSzzazazzazlalllzaxKxKGFGGGGGGGGPFGGPGGGGGLPPLGGGDGGGDGGPPPLDPPPIP",
"PPPPPPFPPPLLPPLULLLKLKKHKKHKKKKHFSSSSzSzxzzzzlzzzzzzxxxzxxxxxSxvzzzzazlaaalazaazFFKKFGGGPGGGGFGGGGGGGGGGLPPLGGGLDFDGGGDLPPGDPIPP",
"PPPPPPPPFPPKPGPPUKLUKLKUKKKKJKKHFFSSSzxzzzzzzzlllzlzzxxxxxSxSxzzazazlalllaalzazzKxxGGGGGGLGFFFGGGGGGGGGDPPGGGGGKDGGDDGGLPLLLPPUP",
"PPPPPFPFPPFUGGGGKULKLKKKJKKHHKKHFSSSSzSzzzzllzzzzzzzzzzzxxxvzzazzzzaazzazlzzazzSxxKFGFGGGGGGFGFGGGGGGLDLPDPPGGGGGDFGGGPPPDLPPUPP",
"PFPxPFPFGGGGGGGPLLGLKLKKHHKKKHKHFVFzFzzzzVlzzzzlzzazzzzzzzzzazazazzlzllaalazzaSSxFGFGGGGGGFFFFFFFGGGGGGGPGGGGGGGFGFGGFPPPDPPPPGP",
"PPPPFPFFGGGGGGGGLLKLLKKKKJDHHKFHFzFzVzzzlzzzalzlazzzzzzzzzazzzlzzlaaaalzzazazzSSFKFGFKFPGFFGFFGxFFFFFGGGPGPGGGGKGGGGGPGGLLGGGPPG",
"PPxFxPFPFGFGGGGGGGDKKKKKHKJKHKHFFzSSFxzzzzlzlzlzlzzzzzzazzzaazazzaazlalaaazzzxSFFGPFGGFFFFFFFxFFFFFFFGPGGPGGGGGGGGGGGGPPDGGPGPGP",
"xFPxFFFxFFGGGGFGKGLKKLGKKKFDFKDHSSxSzzzzzzzzlzzzzzzlzzzzazzzzzzaallazlazzlzzSFFFFFxFFFKFFxxxxxFFFFFFFGPGGPGGGGKGKGGGGPPPGGGGPGGG",
"xPFFFFFFFFFFFFGGKGKKGFDDFKKKKFDSzFzSSzzzzzlzzlzzzzzzzlazzzzzlzpzzlazlazlzvzxSxFFFFGFxxxxxxxxxxxxxFFFGGGGGPGGGGKGGGGGPGPPGGGGGGGF",
"FFFFFxFFFFFGFFGGKKFKDKFFFSKGHFSSzFzzzlzzlzzlzlzpzlzaazzzpzalaazzlaalazzazzxSFFFFFFFFFxxxxxxxxxxxxFxxGGGGGGGGKGGKFGGGGGGGFGPGGGGF",
"FFFxxFxFFFFFGFFDFDFFFFKFFFFSSFSSFzFzzlzllllzzzlzallzlzalzzazzplpazzaazzzzxKxFFFFFxxFxxxxlxxxxxxxxFxPPFPFGGGGGKGGKGGPGGPPPFGGGGFF",
"xxxxxxxxFFFFGFDFDFFKSFSSDDSGFSSSFzzzzzzlzllplpzalzzazazzalzalzazlalzzvazxSxFxSxKFFxxxxxxxxxxxxxxxxxFFFPGFGGGGGKGGGGGPFPFFPFGGFFF"
};
